<?xml version="1.0" encoding="utf-8"?>
<svg viewBox="0 0 500 500" xmlns="http://www.w3.org/2000/svg">
  <path d="M 454.944 21.889 C 437.07 25.921 425.448 37.313 421.856 54.323 C 417.629 74.322 431.301 95.643 451.069 99.884 C 465.991 103.082 478.509 99.772 488.894 89.878 C 500.805 78.529 507.431 60.857 502.656 53.178 C 501.586 51.461 501.276 49.492 501.965 48.805 C 504.306 46.464 494.938 33.909 486.653 28.286 C 477.288 21.934 465.388 19.531 454.944 21.889 M 207.978 25.528 C 158.609 31.163 132.446 42.421 91.207 75.776 C 72.554 90.863 48.632 123.761 35.9 151.839 C 13.175 201.958 13.39 273.949 36.417 324.734 C 58.297 372.989 100.148 416.296 141.912 433.897 C 159.946 441.497 191.001 448.282 222.136 451.421 C 272.233 456.478 320.454 448.253 362.457 427.487 C 389.303 414.215 414.073 395.725 412.945 389.796 C 411.513 382.274 402.563 384.727 381.429 398.433 C 369.69 406.046 354.217 414.74 347.043 417.753 C 339.869 420.766 332.207 424.14 330.013 425.25 C 322.17 429.222 281.505 436.254 264.041 436.657 C 239.629 437.221 213.681 431.326 205.18 423.284 C 203.456 421.654 200.458 420.32 198.519 420.32 C 196.576 420.32 195.654 419.245 196.465 417.931 C 197.278 416.618 196.007 414.861 193.641 414.026 C 187.47 411.851 176.242 400.987 177.709 398.614 C 178.389 397.509 177.284 396.604 175.253 396.604 C 173.219 396.604 171.555 395.118 171.555 393.301 C 171.555 391.485 169.904 389.365 167.886 388.59 C 165.866 387.817 163.093 383.965 161.726 380.036 C 160.355 376.106 158.27 372.89 157.095 372.89 C 155.917 372.89 154.955 370.756 154.955 368.147 C 154.955 365.538 154.011 363.405 152.861 363.405 C 150.926 363.405 147.518 355.929 146.912 350.361 C 146.771 349.057 145.858 347.395 144.884 346.67 C 143.909 345.941 142.744 342.185 142.294 338.319 C 141.843 334.454 140.06 328.646 138.328 325.412 C 136.597 322.179 135.409 319.258 135.687 318.921 C 136.614 317.795 133.336 300.627 131.178 295.31 C 129.957 292.299 129.939 289.509 131.134 288.77 C 132.317 288.04 132.193 283.764 130.847 278.892 C 129.541 274.169 128.999 268.307 129.638 265.867 C 130.276 263.429 129.979 261.432 128.98 261.432 C 126.892 261.432 127.747 243.821 130.012 240.157 C 130.842 238.816 130.493 237.718 129.237 237.718 C 126.462 237.718 128.688 182.728 132.212 164.203 C 142.72 108.945 169.676 65.193 203.909 47.837 C 219.749 39.804 220.333 39.702 249.704 39.912 C 271.019 40.062 282.335 41.217 289.603 43.982 C 336.663 61.876 367.571 115.04 378.104 196.217 C 383.143 235.049 378.418 307.182 368.393 344.406 C 364.698 358.128 367.106 360.046 390.322 361.875 C 414.774 363.803 424.449 366.435 423.08 370.788 C 420.598 378.696 422.353 396.557 426.19 402.415 C 435.878 417.202 456.638 422.156 472.768 413.53 C 484.559 407.225 490.354 396.199 489.655 381.392 C 488.754 362.272 488.486 361.033 485.266 361.033 C 483.588 361.033 482.211 360.234 482.206 359.254 C 482.195 356.669 463.448 349.48 453.758 348.341 C 442.382 347.004 437.159 344.552 437.159 340.549 C 437.159 338.69 435.564 336.557 433.614 335.81 C 431.665 335.06 430.661 333.496 431.384 332.326 C 432.104 331.16 431.45 330.205 429.93 330.205 C 428.405 330.205 427.798 328.554 428.578 326.523 C 429.354 324.499 429.055 323.419 427.915 324.126 C 426.774 324.83 425.284 323.287 424.606 320.692 C 423.926 318.084 424.547 315.975 425.997 315.975 C 427.907 315.975 427.909 315.264 426.009 313.365 C 422.727 310.082 425.555 299.525 432.217 290.17 C 438.574 281.24 454.11 275.105 467.876 276.081 L 478.658 276.846 L 482.795 264.989 C 485.896 256.093 486.764 247.208 486.269 229.418 C 485.908 216.374 484.682 204.204 483.546 202.371 C 482.411 200.538 481.061 195.232 480.548 190.582 C 480.036 185.933 478.464 181.414 477.054 180.544 C 475.647 179.674 475.256 177.73 476.188 176.221 C 477.119 174.712 476.591 171.927 475.016 170.026 C 473.439 168.127 472.886 166.573 473.787 166.573 C 474.687 166.573 473.145 163.372 470.358 159.46 C 467.572 155.547 466.111 152.345 467.114 152.345 C 468.115 152.345 467.654 151.064 466.09 149.499 C 464.524 147.934 463.243 144.733 463.243 142.384 C 463.243 140.036 462.198 138.117 460.917 138.117 C 459.639 138.117 457.922 135.448 457.105 132.187 C 456.286 128.927 454.551 126.259 453.248 126.259 C 451.945 126.259 451.493 124.658 452.245 122.702 C 453.076 120.535 452.247 119.145 450.127 119.145 C 448.212 119.145 446.644 118.203 446.644 117.055 C 446.644 115.906 438.106 105.303 427.672 93.493 C 417.238 81.683 408.7 70.821 408.7 69.356 C 408.7 67.89 407.634 67.352 406.329 68.158 C 405.025 68.965 403.958 68.493 403.958 67.112 C 403.958 65.732 402.293 64.602 400.26 64.602 C 398.228 64.602 397.222 63.533 398.028 62.23 C 398.835 60.925 397.908 59.859 395.966 59.859 C 394.026 59.859 391.03 58.518 389.305 56.879 C 387.583 55.243 381.102 51.34 374.907 48.208 C 368.713 45.074 363.642 41.612 363.642 40.514 C 363.642 39.414 361.638 38.516 359.189 38.516 C 356.739 38.516 351.138 37.026 346.739 35.205 C 335.084 30.379 288.059 23.9 259.298 23.155 C 245.604 22.8 222.51 23.867 207.978 25.528" stroke="none" fill-rule="evenodd" style="fill: rgb(209, 213, 219);" transform="matrix(1, 0, 0, 1, 5.684341886080802e-14, 1.4210854715202004e-14)"/>
  <path d="M 435.944 3.889 C 418.07 7.921 406.448 19.313 402.856 36.323 C 398.629 56.322 412.301 77.643 432.069 81.884 C 446.991 85.082 459.509 81.772 469.894 71.878 C 481.805 60.529 488.431 42.857 483.656 35.178 C 482.586 33.461 482.276 31.492 482.965 30.805 C 485.306 28.464 475.938 15.909 467.653 10.286 C 458.288 3.934 446.388 1.531 435.944 3.889 M 188.978 7.528 C 139.609 13.163 113.446 24.421 72.207 57.776 C 53.554 72.863 29.632 105.761 16.9 133.839 C -5.825 183.958 -5.61 255.949 17.417 306.734 C 39.297 354.989 81.148 398.296 122.912 415.897 C 140.946 423.497 172.001 430.282 203.136 433.421 C 253.233 438.478 301.454 430.253 343.457 409.487 C 370.303 396.215 395.073 377.725 393.945 371.796 C 392.513 364.274 383.563 366.727 362.429 380.433 C 350.69 388.046 335.217 396.74 328.043 399.753 C 320.869 402.766 313.207 406.14 311.013 407.25 C 303.17 411.222 262.505 418.254 245.041 418.657 C 220.629 419.221 194.681 413.326 186.18 405.284 C 184.456 403.654 181.458 402.32 179.519 402.32 C 177.576 402.32 176.654 401.245 177.465 399.931 C 178.278 398.618 177.007 396.861 174.641 396.026 C 168.47 393.851 157.242 382.987 158.709 380.614 C 159.389 379.509 158.284 378.604 156.253 378.604 C 154.219 378.604 152.555 377.118 152.555 375.301 C 152.555 373.485 150.904 371.365 148.886 370.59 C 146.866 369.817 144.093 365.965 142.726 362.036 C 141.355 358.106 139.27 354.89 138.095 354.89 C 136.917 354.89 135.955 352.756 135.955 350.147 C 135.955 347.538 135.011 345.405 133.861 345.405 C 131.926 345.405 128.518 337.929 127.912 332.361 C 127.771 331.057 126.858 329.395 125.884 328.67 C 124.909 327.941 123.744 324.185 123.294 320.319 C 122.843 316.454 121.06 310.646 119.328 307.412 C 117.597 304.179 116.409 301.258 116.687 300.921 C 117.614 299.795 114.336 282.627 112.178 277.31 C 110.957 274.299 110.939 271.509 112.134 270.77 C 113.317 270.04 113.193 265.764 111.847 260.892 C 110.541 256.169 109.999 250.307 110.638 247.867 C 111.276 245.429 110.979 243.432 109.98 243.432 C 107.892 243.432 108.747 225.821 111.012 222.157 C 111.842 220.816 111.493 219.718 110.237 219.718 C 107.462 219.718 109.688 164.728 113.212 146.203 C 123.72 90.945 150.676 47.193 184.909 29.837 C 200.749 21.804 201.333 21.702 230.704 21.912 C 252.019 22.062 263.335 23.217 270.603 25.982 C 317.663 43.876 348.571 97.04 359.104 178.217 C 364.143 217.049 359.418 289.182 349.393 326.406 C 345.698 340.128 348.106 342.046 371.322 343.875 C 395.774 345.803 405.449 348.435 404.08 352.788 C 401.598 360.696 403.353 378.557 407.19 384.415 C 416.878 399.202 437.638 404.156 453.768 395.53 C 465.559 389.225 471.354 378.199 470.655 363.392 C 469.754 344.272 469.486 343.033 466.266 343.033 C 464.588 343.033 463.211 342.234 463.206 341.254 C 463.195 338.669 444.448 331.48 434.758 330.341 C 423.382 329.004 418.159 326.552 418.159 322.549 C 418.159 320.69 416.564 318.557 414.614 317.81 C 412.665 317.06 411.661 315.496 412.384 314.326 C 413.104 313.16 412.45 312.205 410.93 312.205 C 409.405 312.205 408.798 310.554 409.578 308.523 C 410.354 306.499 410.055 305.419 408.915 306.126 C 407.774 306.83 406.284 305.287 405.606 302.692 C 404.926 300.084 405.547 297.975 406.997 297.975 C 408.907 297.975 408.909 297.264 407.009 295.365 C 403.727 292.082 406.555 281.525 413.217 272.17 C 419.574 263.24 435.11 257.105 448.876 258.081 L 459.658 258.846 L 463.795 246.989 C 466.896 238.093 467.764 229.208 467.269 211.418 C 466.908 198.374 465.682 186.204 464.546 184.371 C 463.411 182.538 462.061 177.232 461.548 172.582 C 461.036 167.933 459.464 163.414 458.054 162.544 C 456.647 161.674 456.256 159.73 457.188 158.221 C 458.119 156.712 457.591 153.927 456.016 152.026 C 454.439 150.127 453.886 148.573 454.787 148.573 C 455.687 148.573 454.145 145.372 451.358 141.46 C 448.572 137.547 447.111 134.345 448.114 134.345 C 449.115 134.345 448.654 133.064 447.09 131.499 C 445.524 129.934 444.243 126.733 444.243 124.384 C 444.243 122.036 443.198 120.117 441.917 120.117 C 440.639 120.117 438.922 117.448 438.105 114.187 C 437.286 110.927 435.551 108.259 434.248 108.259 C 432.945 108.259 432.493 106.658 433.245 104.702 C 434.076 102.535 433.247 101.145 431.127 101.145 C 429.212 101.145 427.644 100.203 427.644 99.055 C 427.644 97.906 419.106 87.303 408.672 75.493 C 398.238 63.683 389.7 52.821 389.7 51.356 C 389.7 49.89 388.634 49.352 387.329 50.158 C 386.025 50.965 384.958 50.493 384.958 49.112 C 384.958 47.732 383.293 46.602 381.26 46.602 C 379.228 46.602 378.222 45.533 379.028 44.23 C 379.835 42.925 378.908 41.859 376.966 41.859 C 375.026 41.859 372.03 40.518 370.305 38.879 C 368.583 37.243 362.102 33.34 355.907 30.208 C 349.713 27.074 344.642 23.612 344.642 22.514 C 344.642 21.414 342.638 20.516 340.189 20.516 C 337.739 20.516 332.138 19.026 327.739 17.205 C 316.084 12.379 269.059 5.9 240.298 5.155 C 226.604 4.8 203.51 5.867 188.978 7.528" stroke="none" fill-rule="evenodd" style="fill: rgb(11, 11, 9);" transform="matrix(1, 0, 0, 1, 5.684341886080802e-14, 1.4210854715202004e-14)"/>
</svg>