<?xml version="1.0" encoding="utf-8"?>
<svg viewBox="-49.0854 22.72 969.8917 331.4855" xmlns="http://www.w3.org/2000/svg">
  <g transform="matrix(0.10000000149011613, 0, 0, -0.10000000149011613, -306.8938293457031, 691.2676391601564)" fill="#000000" stroke="none">
    <path d="M5920 6624 c-141 -47 -227 -152 -237 -290 -5 -62 -2 -79 20 -127 32&#10;-71 83 -126 149 -163 46 -25 63 -29 134 -29 68 0 89 4 135 28 70 35 122 86&#10;154 149 34 67 35 186 4 256 -29 66 -115 144 -179 165 -49 16 -146 22 -180 11z" style="fill: rgb(209, 213, 219);"/>
    <g>
      <path d="M4175 6609 c-22 -4 -65 -8 -95 -9 -30 0 -73 -5 -95 -11 -22 -6 -63&#10;-14 -92 -19 -28 -4 -57 -12 -64 -16 -7 -4 -29 -11 -48 -15 -65 -13 -120 -35&#10;-241 -94 -130 -63 -227 -128 -341 -228 -191 -167 -350 -395 -444 -637 -9 -25&#10;-23 -60 -31 -78 -8 -18 -14 -40 -14 -48 0 -9 -7 -37 -15 -63 -39 -125 -48&#10;-202 -47 -410 0 -156 4 -218 16 -256 9 -27 16 -63 16 -78 0 -16 5 -38 12 -50&#10;6 -12 15 -38 19 -57 18 -88 95 -259 187 -415 130 -220 369 -457 559 -553 23&#10;-11 50 -25 60 -31 16 -9 41 -20 145 -65 20 -9 45 -16 55 -16 10 0 23 -4 28 -9&#10;15 -14 159 -45 330 -71 79 -13 532 -12 615 0 139 21 179 28 212 39 18 6 67 20&#10;108 32 41 12 82 26 90 30 8 4 64 30 123 58 179 83 395 238 413 294 5 15 0 27&#10;-20 44 -31 27 -39 25 -129 -36 -124 -84 -201 -130 -297 -176 -52 -26 -103 -50&#10;-112 -56 -10 -5 -23 -9 -29 -9 -6 0 -25 -6 -42 -14 -32 -14 -68 -24 -182 -52&#10;-258 -62 -541 -54 -712 22 -17 8 -33 14 -36 14 -3 0 -34 17 -69 38 -73 43&#10;-182 143 -244 223 -57 75 -174 304 -174 343 0 8 -4 17 -9 20 -4 3 -11 24 -15&#10;46 -3 23 -10 49 -15 58 -10 17 -22 72 -48 217 -32 182 -41 788 -12 897 5 20&#10;14 67 19 105 16 116 57 263 104 378 21 51 48 109 57 125 5 8 13 24 18 35 5 11&#10;26 45 46 75 129 188 280 296 480 344 88 21 183 21 310 0 107 -17 232 -51 241&#10;-65 3 -5 11 -9 19 -9 24 0 129 -76 193 -141 143 -144 234 -324 318 -629 71&#10;-257 96 -653 61 -990 -22 -209 -40 -319 -84 -515 -11 -52 26 -65 242 -85 61&#10;-6 129 -15 153 -22 40 -10 54 -29 32 -43 -5 -3 -10 -42 -10 -86 0 -96 18 -138&#10;85 -197 44 -39 124 -72 172 -72 72 1 179 62 225 131 45 67 50 194 12 256 -58&#10;94 -127 133 -234 133 -64 0 -75 3 -114 32 -49 37 -116 123 -116 149 0 10 -4&#10;21 -10 24 -16 10 -11 106 8 157 28 73 71 123 137 159 54 29 69 32 159 34 111&#10;3 124 10 136 72 4 21 13 62 19 92 19 95 12 215 -23 386 -24 119 -38 170 -47&#10;180 -5 5 -9 18 -9 30 0 11 -7 33 -15 49 -8 15 -15 33 -15 38 0 19 -110 252&#10;-141 298 -9 14 -38 59 -65 100 -61 95 -77 113 -200 235 -109 110 -247 208&#10;-379 270 -103 49 -108 51 -185 75 -36 11 -80 25 -98 31 -19 6 -57 15 -85 19&#10;-29 5 -74 13 -102 19 -150 29 -528 42 -630 20z" style="fill: rgb(209, 213, 219);"/>
      <g transform="matrix(10.32794, 0, 0, -10.32794, 473.135223, 6887.955078)" style="">
        <path d="M 687.982 127.489 L 684.682 129.489 L 684.782 154.789 C 684.782 168.589 684.782 180.689 684.782 181.489 C 684.782 182.389 683.382 181.589 681.082 179.289 C 676.482 174.889 669.882 170.789 666.082 169.889 C 664.582 169.489 662.682 168.689 661.882 168.089 C 660.982 167.389 655.382 166.989 646.882 166.989 C 636.282 166.989 631.982 167.389 627.382 168.889 C 610.682 174.189 597.182 187.389 590.982 204.489 C 588.482 211.189 588.582 232.889 591.182 240.989 C 596.482 257.389 609.982 270.989 627.282 277.189 C 634.082 279.589 654.282 279.689 660.782 277.289 C 668.682 274.489 675.382 270.489 680.082 265.989 L 684.582 261.589 L 685.282 267.189 C 686.182 274.789 686.482 275.189 690.182 276.489 C 695.482 278.189 698.482 276.489 699.282 271.289 C 699.582 268.889 699.782 235.989 699.582 198.189 L 699.282 129.289 L 696.882 127.389 C 693.882 124.989 692.082 124.989 687.982 127.489 Z M 657.082 182.089 C 659.982 182.989 663.782 184.389 665.682 185.289 C 671.282 188.089 679.182 196.489 682.282 202.989 C 685.082 208.689 685.182 209.689 685.182 223.089 L 685.282 237.189 L 681.782 243.989 C 674.982 257.089 663.282 264.089 646.382 265.189 C 635.682 265.889 623.582 261.789 616.582 255.289 C 602.782 242.189 598.982 220.989 607.182 203.489 C 609.682 198.189 610.082 197.589 614.982 192.489 C 619.782 187.389 622.682 185.589 630.082 182.889 C 637.782 180.189 649.582 179.789 657.082 182.089 Z" style="fill: rgb(209, 213, 219);"/>
        <path d="M 834.682 126.989 C 832.282 128.289 831.982 129.189 831.282 135.989 C 830.882 140.089 830.982 152.089 831.382 162.489 C 831.882 177.089 831.782 181.489 830.882 181.489 C 830.182 181.489 827.582 179.789 824.982 177.589 C 819.782 173.289 816.382 171.389 809.082 168.789 C 802.282 166.289 781.382 166.289 774.282 168.789 C 765.182 171.989 759.082 175.589 752.682 181.289 C 741.782 191.189 736.282 202.389 735.182 217.189 C 734.582 226.289 736.082 241.189 737.782 242.889 C 738.382 243.489 738.782 244.489 738.782 245.289 C 738.782 247.989 745.882 258.489 751.282 263.789 C 756.782 269.189 765.282 274.089 774.282 277.189 C 781.282 279.489 799.382 279.489 806.282 277.089 C 813.182 274.689 822.482 269.289 827.282 264.989 L 831.282 261.389 L 831.782 267.989 C 832.382 275.489 833.182 276.489 839.582 276.489 C 843.282 276.489 843.982 276.089 844.782 273.889 C 845.982 270.889 846.182 130.589 844.982 128.889 C 844.082 127.489 840.282 125.489 838.582 125.489 C 837.882 125.589 836.082 126.189 834.682 126.989 Z M 803.082 182.089 C 811.382 184.589 814.882 186.689 820.382 191.989 C 828.682 200.189 831.782 208.789 831.782 224.089 C 831.782 235.789 830.182 241.689 825.082 248.689 C 812.382 266.189 785.382 270.889 767.082 258.789 C 755.382 251.089 749.482 239.089 749.482 222.989 C 749.482 210.289 752.182 202.889 759.782 194.189 C 769.982 182.589 788.182 177.489 803.082 182.089 Z" style="fill: rgb(209, 213, 219);"/>
        <path d="M 977.082 126.989 C 974.482 128.089 973.782 128.989 973.282 132.689 C 972.982 135.089 972.782 167.889 972.982 205.689 C 973.182 260.489 973.582 274.689 974.582 275.689 C 975.582 276.689 982.282 276.989 1004.082 276.989 C 1035.682 276.989 1036.782 276.789 1036.782 270.989 C 1036.782 264.889 1035.182 264.489 1011.282 264.489 C 999.782 264.489 989.582 264.089 988.782 263.489 C 987.282 262.589 987.282 261.689 986.882 151.789 L 986.782 128.589 L 983.782 126.989 C 980.382 125.189 981.082 125.189 977.082 126.989 Z" style="fill: rgb(209, 213, 219);"/>
        <path d="M 886.182 128.589 C 884.382 130.589 884.282 133.489 883.982 201.489 C 883.782 270.089 883.782 272.289 885.682 274.589 C 887.582 276.989 887.782 276.989 910.482 277.289 C 933.282 277.689 946.182 277.089 948.682 275.589 C 950.282 274.589 950.382 267.689 948.882 266.189 C 948.082 265.389 940.082 264.889 923.782 264.689 C 910.582 264.489 899.682 264.289 899.582 264.189 C 899.482 264.089 899.082 233.989 898.782 197.389 C 898.282 133.589 898.182 130.589 896.382 128.589 C 893.882 125.789 888.682 125.789 886.182 128.589 Z" style="fill: rgb(209, 213, 219);"/>
        <path d="M 1043.082 170.189 C 1042.382 170.389 1041.782 171.989 1041.782 173.589 C 1041.782 176.189 1042.682 178.689 1046.782 187.989 C 1047.282 189.089 1048.682 192.189 1049.782 194.989 C 1050.982 197.689 1053.182 202.689 1054.782 205.989 C 1056.282 209.289 1058.182 213.589 1059.082 215.489 C 1059.882 217.389 1062.182 222.389 1064.082 226.489 C 1065.982 230.589 1069.182 237.589 1071.282 241.989 C 1073.282 246.389 1075.582 251.289 1076.282 252.989 C 1076.982 254.589 1079.182 259.489 1081.182 263.789 C 1083.182 268.189 1084.782 272.489 1084.782 273.389 C 1084.782 274.989 1080.982 284.489 1075.782 295.989 C 1063.882 322.489 1063.282 326.389 1071.082 326.689 C 1074.582 326.789 1078.782 324.389 1078.782 322.289 C 1078.782 321.789 1079.682 319.289 1080.882 316.689 C 1081.982 314.089 1083.582 310.389 1084.382 308.489 C 1086.182 304.289 1086.882 302.789 1090.182 295.189 C 1091.582 292.089 1093.882 286.689 1095.382 283.189 C 1096.782 279.789 1098.982 274.589 1100.382 271.689 C 1101.682 268.789 1102.782 266.189 1102.782 265.889 C 1102.782 265.389 1104.782 260.789 1108.282 252.989 C 1108.982 251.289 1110.482 247.989 1111.582 245.489 C 1114.082 239.789 1117.582 231.889 1119.282 227.989 C 1120.082 226.289 1121.682 222.689 1122.882 219.989 C 1123.982 217.189 1126.082 212.689 1127.282 209.989 C 1128.582 207.189 1130.582 202.689 1131.782 199.989 C 1132.982 197.189 1135.082 192.689 1136.282 189.989 C 1143.982 173.189 1144.482 170.989 1140.282 169.889 C 1138.882 169.589 1136.182 169.589 1134.182 169.889 C 1130.882 170.589 1130.382 171.189 1126.582 179.289 C 1124.382 184.089 1122.282 188.889 1121.782 189.989 C 1121.282 191.089 1119.882 194.189 1118.682 196.989 C 1117.482 199.689 1115.482 204.189 1114.282 206.989 C 1112.982 209.689 1110.982 214.189 1109.782 216.989 C 1108.682 219.689 1107.282 222.889 1106.782 223.989 C 1106.282 225.089 1104.882 228.189 1103.682 230.989 C 1102.482 233.689 1100.482 238.189 1099.282 240.989 C 1097.982 243.689 1096.082 248.089 1094.982 250.689 C 1093.782 253.389 1092.682 255.489 1092.382 255.489 C 1092.082 255.489 1090.882 253.389 1089.782 250.689 C 1087.582 245.789 1087.482 245.589 1083.382 236.189 C 1081.982 233.089 1079.582 227.889 1078.182 224.689 C 1074.982 217.589 1074.282 215.989 1072.182 210.989 C 1071.282 208.789 1068.982 203.789 1067.182 199.789 C 1065.282 195.889 1063.782 192.389 1063.782 192.089 C 1063.782 191.589 1058.382 179.489 1055.982 174.589 C 1053.782 170.189 1047.882 168.189 1043.082 170.189 Z" style="fill: rgb(209, 213, 219);"/>
      </g>
    </g>
  </g>
  <g transform="matrix(0.10000000149011613, 0, 0, -0.10000000149011613, -313.87811279296875, 685.6802368164064)" fill="#000000" stroke="none">
    <path d="M5920 6624 c-141 -47 -227 -152 -237 -290 -5 -62 -2 -79 20 -127 32&#10;-71 83 -126 149 -163 46 -25 63 -29 134 -29 68 0 89 4 135 28 70 35 122 86&#10;154 149 34 67 35 186 4 256 -29 66 -115 144 -179 165 -49 16 -146 22 -180 11z"/>
    <g>
      <path d="M4175 6609 c-22 -4 -65 -8 -95 -9 -30 0 -73 -5 -95 -11 -22 -6 -63&#10;-14 -92 -19 -28 -4 -57 -12 -64 -16 -7 -4 -29 -11 -48 -15 -65 -13 -120 -35&#10;-241 -94 -130 -63 -227 -128 -341 -228 -191 -167 -350 -395 -444 -637 -9 -25&#10;-23 -60 -31 -78 -8 -18 -14 -40 -14 -48 0 -9 -7 -37 -15 -63 -39 -125 -48&#10;-202 -47 -410 0 -156 4 -218 16 -256 9 -27 16 -63 16 -78 0 -16 5 -38 12 -50&#10;6 -12 15 -38 19 -57 18 -88 95 -259 187 -415 130 -220 369 -457 559 -553 23&#10;-11 50 -25 60 -31 16 -9 41 -20 145 -65 20 -9 45 -16 55 -16 10 0 23 -4 28 -9&#10;15 -14 159 -45 330 -71 79 -13 532 -12 615 0 139 21 179 28 212 39 18 6 67 20&#10;108 32 41 12 82 26 90 30 8 4 64 30 123 58 179 83 395 238 413 294 5 15 0 27&#10;-20 44 -31 27 -39 25 -129 -36 -124 -84 -201 -130 -297 -176 -52 -26 -103 -50&#10;-112 -56 -10 -5 -23 -9 -29 -9 -6 0 -25 -6 -42 -14 -32 -14 -68 -24 -182 -52&#10;-258 -62 -541 -54 -712 22 -17 8 -33 14 -36 14 -3 0 -34 17 -69 38 -73 43&#10;-182 143 -244 223 -57 75 -174 304 -174 343 0 8 -4 17 -9 20 -4 3 -11 24 -15&#10;46 -3 23 -10 49 -15 58 -10 17 -22 72 -48 217 -32 182 -41 788 -12 897 5 20&#10;14 67 19 105 16 116 57 263 104 378 21 51 48 109 57 125 5 8 13 24 18 35 5 11&#10;26 45 46 75 129 188 280 296 480 344 88 21 183 21 310 0 107 -17 232 -51 241&#10;-65 3 -5 11 -9 19 -9 24 0 129 -76 193 -141 143 -144 234 -324 318 -629 71&#10;-257 96 -653 61 -990 -22 -209 -40 -319 -84 -515 -11 -52 26 -65 242 -85 61&#10;-6 129 -15 153 -22 40 -10 54 -29 32 -43 -5 -3 -10 -42 -10 -86 0 -96 18 -138&#10;85 -197 44 -39 124 -72 172 -72 72 1 179 62 225 131 45 67 50 194 12 256 -58&#10;94 -127 133 -234 133 -64 0 -75 3 -114 32 -49 37 -116 123 -116 149 0 10 -4&#10;21 -10 24 -16 10 -11 106 8 157 28 73 71 123 137 159 54 29 69 32 159 34 111&#10;3 124 10 136 72 4 21 13 62 19 92 19 95 12 215 -23 386 -24 119 -38 170 -47&#10;180 -5 5 -9 18 -9 30 0 11 -7 33 -15 49 -8 15 -15 33 -15 38 0 19 -110 252&#10;-141 298 -9 14 -38 59 -65 100 -61 95 -77 113 -200 235 -109 110 -247 208&#10;-379 270 -103 49 -108 51 -185 75 -36 11 -80 25 -98 31 -19 6 -57 15 -85 19&#10;-29 5 -74 13 -102 19 -150 29 -528 42 -630 20z"/>
      <g transform="matrix(10.32794, 0, 0, -10.32794, 473.135223, 6887.955078)" style="">
        <path d="M 687.982 127.489 L 684.682 129.489 L 684.782 154.789 C 684.782 168.589 684.782 180.689 684.782 181.489 C 684.782 182.389 683.382 181.589 681.082 179.289 C 676.482 174.889 669.882 170.789 666.082 169.889 C 664.582 169.489 662.682 168.689 661.882 168.089 C 660.982 167.389 655.382 166.989 646.882 166.989 C 636.282 166.989 631.982 167.389 627.382 168.889 C 610.682 174.189 597.182 187.389 590.982 204.489 C 588.482 211.189 588.582 232.889 591.182 240.989 C 596.482 257.389 609.982 270.989 627.282 277.189 C 634.082 279.589 654.282 279.689 660.782 277.289 C 668.682 274.489 675.382 270.489 680.082 265.989 L 684.582 261.589 L 685.282 267.189 C 686.182 274.789 686.482 275.189 690.182 276.489 C 695.482 278.189 698.482 276.489 699.282 271.289 C 699.582 268.889 699.782 235.989 699.582 198.189 L 699.282 129.289 L 696.882 127.389 C 693.882 124.989 692.082 124.989 687.982 127.489 Z M 657.082 182.089 C 659.982 182.989 663.782 184.389 665.682 185.289 C 671.282 188.089 679.182 196.489 682.282 202.989 C 685.082 208.689 685.182 209.689 685.182 223.089 L 685.282 237.189 L 681.782 243.989 C 674.982 257.089 663.282 264.089 646.382 265.189 C 635.682 265.889 623.582 261.789 616.582 255.289 C 602.782 242.189 598.982 220.989 607.182 203.489 C 609.682 198.189 610.082 197.589 614.982 192.489 C 619.782 187.389 622.682 185.589 630.082 182.889 C 637.782 180.189 649.582 179.789 657.082 182.089 Z"/>
        <path d="M 834.682 126.989 C 832.282 128.289 831.982 129.189 831.282 135.989 C 830.882 140.089 830.982 152.089 831.382 162.489 C 831.882 177.089 831.782 181.489 830.882 181.489 C 830.182 181.489 827.582 179.789 824.982 177.589 C 819.782 173.289 816.382 171.389 809.082 168.789 C 802.282 166.289 781.382 166.289 774.282 168.789 C 765.182 171.989 759.082 175.589 752.682 181.289 C 741.782 191.189 736.282 202.389 735.182 217.189 C 734.582 226.289 736.082 241.189 737.782 242.889 C 738.382 243.489 738.782 244.489 738.782 245.289 C 738.782 247.989 745.882 258.489 751.282 263.789 C 756.782 269.189 765.282 274.089 774.282 277.189 C 781.282 279.489 799.382 279.489 806.282 277.089 C 813.182 274.689 822.482 269.289 827.282 264.989 L 831.282 261.389 L 831.782 267.989 C 832.382 275.489 833.182 276.489 839.582 276.489 C 843.282 276.489 843.982 276.089 844.782 273.889 C 845.982 270.889 846.182 130.589 844.982 128.889 C 844.082 127.489 840.282 125.489 838.582 125.489 C 837.882 125.589 836.082 126.189 834.682 126.989 Z M 803.082 182.089 C 811.382 184.589 814.882 186.689 820.382 191.989 C 828.682 200.189 831.782 208.789 831.782 224.089 C 831.782 235.789 830.182 241.689 825.082 248.689 C 812.382 266.189 785.382 270.889 767.082 258.789 C 755.382 251.089 749.482 239.089 749.482 222.989 C 749.482 210.289 752.182 202.889 759.782 194.189 C 769.982 182.589 788.182 177.489 803.082 182.089 Z"/>
        <path d="M 977.082 126.989 C 974.482 128.089 973.782 128.989 973.282 132.689 C 972.982 135.089 972.782 167.889 972.982 205.689 C 973.182 260.489 973.582 274.689 974.582 275.689 C 975.582 276.689 982.282 276.989 1004.082 276.989 C 1035.682 276.989 1036.782 276.789 1036.782 270.989 C 1036.782 264.889 1035.182 264.489 1011.282 264.489 C 999.782 264.489 989.582 264.089 988.782 263.489 C 987.282 262.589 987.282 261.689 986.882 151.789 L 986.782 128.589 L 983.782 126.989 C 980.382 125.189 981.082 125.189 977.082 126.989 Z"/>
        <path d="M 886.182 128.589 C 884.382 130.589 884.282 133.489 883.982 201.489 C 883.782 270.089 883.782 272.289 885.682 274.589 C 887.582 276.989 887.782 276.989 910.482 277.289 C 933.282 277.689 946.182 277.089 948.682 275.589 C 950.282 274.589 950.382 267.689 948.882 266.189 C 948.082 265.389 940.082 264.889 923.782 264.689 C 910.582 264.489 899.682 264.289 899.582 264.189 C 899.482 264.089 899.082 233.989 898.782 197.389 C 898.282 133.589 898.182 130.589 896.382 128.589 C 893.882 125.789 888.682 125.789 886.182 128.589 Z"/>
        <path d="M 1043.082 170.189 C 1042.382 170.389 1041.782 171.989 1041.782 173.589 C 1041.782 176.189 1042.682 178.689 1046.782 187.989 C 1047.282 189.089 1048.682 192.189 1049.782 194.989 C 1050.982 197.689 1053.182 202.689 1054.782 205.989 C 1056.282 209.289 1058.182 213.589 1059.082 215.489 C 1059.882 217.389 1062.182 222.389 1064.082 226.489 C 1065.982 230.589 1069.182 237.589 1071.282 241.989 C 1073.282 246.389 1075.582 251.289 1076.282 252.989 C 1076.982 254.589 1079.182 259.489 1081.182 263.789 C 1083.182 268.189 1084.782 272.489 1084.782 273.389 C 1084.782 274.989 1080.982 284.489 1075.782 295.989 C 1063.882 322.489 1063.282 326.389 1071.082 326.689 C 1074.582 326.789 1078.782 324.389 1078.782 322.289 C 1078.782 321.789 1079.682 319.289 1080.882 316.689 C 1081.982 314.089 1083.582 310.389 1084.382 308.489 C 1086.182 304.289 1086.882 302.789 1090.182 295.189 C 1091.582 292.089 1093.882 286.689 1095.382 283.189 C 1096.782 279.789 1098.982 274.589 1100.382 271.689 C 1101.682 268.789 1102.782 266.189 1102.782 265.889 C 1102.782 265.389 1104.782 260.789 1108.282 252.989 C 1108.982 251.289 1110.482 247.989 1111.582 245.489 C 1114.082 239.789 1117.582 231.889 1119.282 227.989 C 1120.082 226.289 1121.682 222.689 1122.882 219.989 C 1123.982 217.189 1126.082 212.689 1127.282 209.989 C 1128.582 207.189 1130.582 202.689 1131.782 199.989 C 1132.982 197.189 1135.082 192.689 1136.282 189.989 C 1143.982 173.189 1144.482 170.989 1140.282 169.889 C 1138.882 169.589 1136.182 169.589 1134.182 169.889 C 1130.882 170.589 1130.382 171.189 1126.582 179.289 C 1124.382 184.089 1122.282 188.889 1121.782 189.989 C 1121.282 191.089 1119.882 194.189 1118.682 196.989 C 1117.482 199.689 1115.482 204.189 1114.282 206.989 C 1112.982 209.689 1110.982 214.189 1109.782 216.989 C 1108.682 219.689 1107.282 222.889 1106.782 223.989 C 1106.282 225.089 1104.882 228.189 1103.682 230.989 C 1102.482 233.689 1100.482 238.189 1099.282 240.989 C 1097.982 243.689 1096.082 248.089 1094.982 250.689 C 1093.782 253.389 1092.682 255.489 1092.382 255.489 C 1092.082 255.489 1090.882 253.389 1089.782 250.689 C 1087.582 245.789 1087.482 245.589 1083.382 236.189 C 1081.982 233.089 1079.582 227.889 1078.182 224.689 C 1074.982 217.589 1074.282 215.989 1072.182 210.989 C 1071.282 208.789 1068.982 203.789 1067.182 199.789 C 1065.282 195.889 1063.782 192.389 1063.782 192.089 C 1063.782 191.589 1058.382 179.489 1055.982 174.589 C 1053.782 170.189 1047.882 168.189 1043.082 170.189 Z"/>
      </g>
    </g>
  </g>
</svg>