<svg width="471" height="416" viewBox="0 0 471 416" fill="none" xmlns="http://www.w3.org/2000/svg">
<path d="M126.142 35L0 208L126.142 381H344.86L471 208L344.86 35H126.142Z" fill="black"/>
<rect x="28" y="208" width="293" height="293" transform="rotate(-45 28 208)" fill="white"/>
<path d="M103.024 174.928C107.917 174.928 112.429 175.733 116.56 177.345C120.72 178.927 124.309 181.168 127.326 184.068C130.344 186.939 132.702 190.396 134.401 194.439C136.101 198.482 136.95 202.95 136.95 207.843C136.95 210.626 136.628 213.365 135.983 216.061C135.339 218.756 134.387 221.305 133.127 223.707C131.896 226.109 130.373 228.336 128.557 230.387C126.74 232.408 124.66 234.166 122.316 235.66C120.002 237.125 117.438 238.268 114.626 239.088C111.813 239.938 108.781 240.362 105.529 240.362C100.637 240.362 96.1104 239.586 91.9502 238.033C87.8193 236.451 84.2451 234.225 81.2275 231.354C78.21 228.482 75.8516 225.04 74.1523 221.026C72.4531 216.983 71.6035 212.501 71.6035 207.579C71.6035 204.796 71.9258 202.057 72.5703 199.361C73.2148 196.666 74.1523 194.103 75.3828 191.671C76.6426 189.239 78.166 187.013 79.9531 184.991C81.7695 182.94 83.835 181.168 86.1494 179.674C88.4932 178.18 91.0713 177.022 93.8838 176.202C96.7256 175.353 99.7725 174.928 103.024 174.928ZM105.529 236.407C108.781 236.407 111.755 235.821 114.45 234.649C117.146 233.478 119.46 231.778 121.394 229.552C123.356 227.325 124.88 224.615 125.964 221.422C127.048 218.199 127.59 214.552 127.59 210.479C127.59 205.968 127.062 201.793 126.008 197.955C124.982 194.088 123.444 190.748 121.394 187.936C119.343 185.094 116.779 182.882 113.703 181.3C110.656 179.688 107.097 178.883 103.024 178.883C99.7725 178.883 96.7988 179.469 94.1035 180.641C91.4082 181.783 89.0791 183.453 87.1162 185.65C85.1826 187.848 83.6738 190.543 82.5898 193.736C81.5059 196.93 80.9639 200.562 80.9639 204.635C80.9639 209.117 81.4766 213.307 82.502 217.203C83.5273 221.07 85.0654 224.425 87.1162 227.267C89.167 230.108 91.7305 232.35 94.8066 233.99C97.8828 235.602 101.457 236.407 105.529 236.407ZM156.506 179.762C156.447 183.043 156.389 186.222 156.33 189.298C156.301 190.616 156.271 191.964 156.242 193.341C156.242 194.718 156.228 196.08 156.198 197.428C156.198 198.746 156.184 200.021 156.154 201.251C156.154 202.452 156.154 203.521 156.154 204.459C156.154 206.422 156.169 208.795 156.198 211.578C156.228 214.361 156.257 217.218 156.286 220.147C156.345 223.077 156.418 225.89 156.506 228.585C156.594 231.28 156.696 233.521 156.813 235.309C157.224 235.367 157.766 235.44 158.439 235.528C159.143 235.587 159.875 235.646 160.637 235.704C161.398 235.733 162.146 235.763 162.878 235.792C163.61 235.821 164.226 235.836 164.724 235.836C166.774 235.836 168.869 235.704 171.008 235.44C173.176 235.147 175.256 234.62 177.248 233.858C179.27 233.097 181.159 232.057 182.917 230.738C184.704 229.391 186.257 227.662 187.575 225.553C188.923 223.443 189.978 220.909 190.739 217.95C191.501 214.962 191.882 211.446 191.882 207.403C191.882 202.921 191.34 198.937 190.256 195.45C189.172 191.935 187.575 188.976 185.466 186.573C183.386 184.171 180.793 182.354 177.688 181.124C174.611 179.864 171.066 179.234 167.053 179.234C166.262 179.234 165.368 179.264 164.372 179.322C163.376 179.352 162.38 179.396 161.384 179.454C160.417 179.483 159.494 179.542 158.615 179.63C157.766 179.688 157.062 179.732 156.506 179.762ZM146.882 175.807C147.556 175.836 148.186 175.865 148.771 175.895C149.27 175.924 149.782 175.953 150.31 175.982C150.837 175.982 151.262 175.982 151.584 175.982C152.141 175.982 153.063 175.953 154.353 175.895C155.671 175.836 157.165 175.777 158.835 175.719C160.505 175.66 162.233 175.602 164.021 175.543C165.837 175.484 167.536 175.455 169.118 175.455C173.366 175.455 177.409 175.982 181.247 177.037C185.085 178.092 188.454 179.82 191.354 182.223C194.255 184.625 196.555 187.774 198.254 191.671C199.953 195.567 200.803 200.357 200.803 206.041C200.803 210.113 200.349 213.775 199.44 217.027C198.562 220.279 197.316 223.15 195.705 225.641C194.094 228.131 192.16 230.27 189.904 232.057C187.678 233.814 185.202 235.265 182.478 236.407C179.782 237.55 176.896 238.385 173.82 238.912C170.744 239.439 167.565 239.703 164.284 239.703C163.112 239.703 161.691 239.659 160.021 239.571C158.381 239.513 156.726 239.439 155.056 239.352C153.386 239.264 151.804 239.176 150.31 239.088C148.845 239.029 147.702 239 146.882 239V238.824C147.058 238.209 147.219 237.447 147.365 236.539C147.541 235.631 147.688 234.503 147.805 233.155C147.922 231.808 148.01 230.211 148.068 228.365C148.127 226.49 148.156 224.308 148.156 221.817V193.209C148.156 190.719 148.127 188.536 148.068 186.661C148.01 184.757 147.922 183.131 147.805 181.783C147.688 180.406 147.541 179.249 147.365 178.312C147.219 177.374 147.058 176.598 146.882 175.982V175.807ZM220.754 179.762C220.695 183.043 220.637 186.222 220.578 189.298C220.549 190.616 220.52 191.964 220.49 193.341C220.49 194.718 220.476 196.08 220.446 197.428C220.446 198.746 220.432 200.021 220.402 201.251C220.402 202.452 220.402 203.521 220.402 204.459C220.402 206.422 220.417 208.795 220.446 211.578C220.476 214.361 220.505 217.218 220.534 220.147C220.593 223.077 220.666 225.89 220.754 228.585C220.842 231.28 220.944 233.521 221.062 235.309C221.472 235.367 222.014 235.44 222.688 235.528C223.391 235.587 224.123 235.646 224.885 235.704C225.646 235.733 226.394 235.763 227.126 235.792C227.858 235.821 228.474 235.836 228.972 235.836C231.022 235.836 233.117 235.704 235.256 235.44C237.424 235.147 239.504 234.62 241.496 233.858C243.518 233.097 245.407 232.057 247.165 230.738C248.952 229.391 250.505 227.662 251.823 225.553C253.171 223.443 254.226 220.909 254.987 217.95C255.749 214.962 256.13 211.446 256.13 207.403C256.13 202.921 255.588 198.937 254.504 195.45C253.42 191.935 251.823 188.976 249.714 186.573C247.634 184.171 245.041 182.354 241.936 181.124C238.859 179.864 235.314 179.234 231.301 179.234C230.51 179.234 229.616 179.264 228.62 179.322C227.624 179.352 226.628 179.396 225.632 179.454C224.665 179.483 223.742 179.542 222.863 179.63C222.014 179.688 221.311 179.732 220.754 179.762ZM211.13 175.807C211.804 175.836 212.434 175.865 213.02 175.895C213.518 175.924 214.03 175.953 214.558 175.982C215.085 175.982 215.51 175.982 215.832 175.982C216.389 175.982 217.312 175.953 218.601 175.895C219.919 175.836 221.413 175.777 223.083 175.719C224.753 175.66 226.481 175.602 228.269 175.543C230.085 175.484 231.784 175.455 233.366 175.455C237.614 175.455 241.657 175.982 245.495 177.037C249.333 178.092 252.702 179.82 255.603 182.223C258.503 184.625 260.803 187.774 262.502 191.671C264.201 195.567 265.051 200.357 265.051 206.041C265.051 210.113 264.597 213.775 263.688 217.027C262.81 220.279 261.564 223.15 259.953 225.641C258.342 228.131 256.408 230.27 254.152 232.057C251.926 233.814 249.45 235.265 246.726 236.407C244.03 237.55 241.145 238.385 238.068 238.912C234.992 239.439 231.813 239.703 228.532 239.703C227.36 239.703 225.939 239.659 224.27 239.571C222.629 239.513 220.974 239.439 219.304 239.352C217.634 239.264 216.052 239.176 214.558 239.088C213.093 239.029 211.95 239 211.13 239V238.824C211.306 238.209 211.467 237.447 211.613 236.539C211.789 235.631 211.936 234.503 212.053 233.155C212.17 231.808 212.258 230.211 212.316 228.365C212.375 226.49 212.404 224.308 212.404 221.817V193.209C212.404 190.719 212.375 188.536 212.316 186.661C212.258 184.757 212.17 183.131 212.053 181.783C211.936 180.406 211.789 179.249 211.613 178.312C211.467 177.374 211.306 176.598 211.13 175.982V175.807ZM284.65 235.133C288.107 235.133 291.286 234.986 294.187 234.693C297.087 234.4 299.621 234.063 301.789 233.683C304.309 233.272 306.608 232.789 308.688 232.232L307.414 239.352C307.062 239.322 306.535 239.293 305.832 239.264C305.129 239.234 304.338 239.205 303.459 239.176C302.609 239.146 301.701 239.117 300.734 239.088C299.797 239.088 298.903 239.073 298.054 239.044C297.204 239.044 296.442 239.029 295.769 239C295.124 239 294.655 239 294.362 239H275.378V238.824C275.554 238.209 275.715 237.447 275.861 236.539C276.037 235.631 276.184 234.503 276.301 233.155C276.418 231.808 276.506 230.211 276.564 228.365C276.623 226.49 276.652 224.308 276.652 221.817V193.209C276.652 190.719 276.623 188.551 276.564 186.705C276.506 184.83 276.418 183.219 276.301 181.871C276.184 180.494 276.037 179.352 275.861 178.443C275.715 177.535 275.554 176.773 275.378 176.158V175.982H285.925V176.158C285.749 176.773 285.573 177.535 285.397 178.443C285.251 179.352 285.119 180.494 285.002 181.871C284.914 183.219 284.826 184.83 284.738 186.705C284.68 188.551 284.65 190.719 284.65 193.209V235.133ZM326.047 235.133C329.504 235.133 332.683 234.986 335.583 234.693C338.483 234.4 341.018 234.063 343.186 233.683C345.705 233.272 348.005 232.789 350.085 232.232L348.811 239.352C348.459 239.322 347.932 239.293 347.229 239.264C346.525 239.234 345.734 239.205 344.855 239.176C344.006 239.146 343.098 239.117 342.131 239.088C341.193 239.088 340.3 239.073 339.45 239.044C338.601 239.044 337.839 239.029 337.165 239C336.521 239 336.052 239 335.759 239H316.774V238.824C316.95 238.209 317.111 237.447 317.258 236.539C317.434 235.631 317.58 234.503 317.697 233.155C317.814 231.808 317.902 230.211 317.961 228.365C318.02 226.49 318.049 224.308 318.049 221.817V193.209C318.049 190.719 318.02 188.551 317.961 186.705C317.902 184.83 317.814 183.219 317.697 181.871C317.58 180.494 317.434 179.352 317.258 178.443C317.111 177.535 316.95 176.773 316.774 176.158V175.982H327.321V176.158C327.146 176.773 326.97 177.535 326.794 178.443C326.647 179.352 326.516 180.494 326.398 181.871C326.311 183.219 326.223 184.83 326.135 186.705C326.076 188.551 326.047 190.719 326.047 193.209V235.133ZM379.001 208.766V221.817C379.001 224.308 379.03 226.49 379.089 228.365C379.147 230.211 379.235 231.808 379.353 233.155C379.47 234.503 379.602 235.631 379.748 236.539C379.924 237.447 380.1 238.209 380.275 238.824V239H369.729V238.824C369.904 238.209 370.065 237.447 370.212 236.539C370.388 235.631 370.52 234.503 370.607 233.155C370.725 231.808 370.812 230.211 370.871 228.365C370.959 226.49 371.003 224.308 371.003 221.817V209.645L351.359 182.926C350.686 182.018 350.012 181.183 349.338 180.421C348.693 179.659 348.078 179 347.492 178.443C346.906 177.857 346.379 177.374 345.91 176.993C345.441 176.612 345.075 176.334 344.812 176.158V175.982H358.127C358.127 176.656 358.405 177.77 358.962 179.322C359.548 180.846 360.588 182.647 362.082 184.728L376.496 204.459L390.603 183.849C391.101 183.116 391.599 182.369 392.097 181.607C392.595 180.846 393.049 180.113 393.459 179.41C393.869 178.707 394.191 178.062 394.426 177.477C394.689 176.891 394.821 176.393 394.821 175.982H403.391V176.158C402.746 176.715 401.882 177.55 400.798 178.663C399.714 179.747 398.542 181.197 397.282 183.014L379.001 208.766Z" fill="black"/>
</svg>
