<?xml version="1.0" encoding="utf-8"?>
<svg viewBox="0 0 500 500" xmlns="http://www.w3.org/2000/svg">
  <path d="M 444.443 29.975 C 426.569 34.007 414.947 45.399 411.355 62.409 C 407.128 82.408 420.8 103.729 440.568 107.97 C 455.49 111.168 468.008 107.858 478.393 97.964 C 490.304 86.615 496.93 68.943 492.155 61.264 C 491.085 59.547 490.775 57.578 491.464 56.891 C 493.805 54.55 484.437 41.995 476.152 36.372 C 466.787 30.02 454.887 27.617 444.443 29.975 M 197.477 33.614 C 148.108 39.249 121.945 50.507 80.706 83.862 C 62.053 98.949 38.131 131.847 25.399 159.925 C 2.674 210.044 2.889 282.035 25.916 332.82 C 47.796 381.075 89.647 424.382 131.411 441.983 C 149.445 449.583 180.5 456.368 211.635 459.507 C 261.732 464.564 309.953 456.339 351.956 435.573 C 378.802 422.301 403.572 403.811 402.444 397.882 C 401.012 390.36 392.062 392.813 370.928 406.519 C 359.189 414.132 343.716 422.826 336.542 425.839 C 329.368 428.852 321.706 432.226 319.512 433.336 C 311.669 437.308 271.004 444.34 253.54 444.743 C 229.128 445.307 203.18 439.412 194.679 431.37 C 192.955 429.74 189.957 428.406 188.018 428.406 C 186.075 428.406 185.153 427.331 185.964 426.017 C 186.777 424.704 185.506 422.947 183.14 422.112 C 176.969 419.937 165.741 409.073 167.208 406.7 C 167.888 405.595 166.783 404.69 164.752 404.69 C 162.718 404.69 161.054 403.204 161.054 401.387 C 161.054 399.571 159.403 397.451 157.385 396.676 C 155.365 395.903 152.592 392.051 151.225 388.122 C 149.854 384.192 147.769 380.976 146.594 380.976 C 145.416 380.976 144.454 378.842 144.454 376.233 C 144.454 373.624 143.51 371.491 142.36 371.491 C 140.425 371.491 137.017 364.015 136.411 358.447 C 136.27 357.143 135.357 355.481 134.383 354.756 C 133.408 354.027 132.243 350.271 131.793 346.405 C 131.342 342.54 129.559 336.732 127.827 333.498 C 126.096 330.265 124.908 327.344 125.186 327.007 C 126.113 325.881 122.835 308.713 120.677 303.396 C 119.456 300.385 119.438 297.595 120.633 296.856 C 121.816 296.126 121.692 291.85 120.346 286.978 C 119.04 282.255 118.498 276.393 119.137 273.953 C 119.775 271.515 119.478 269.518 118.479 269.518 C 116.391 269.518 117.246 251.907 119.511 248.243 C 120.341 246.902 119.992 245.804 118.736 245.804 C 115.961 245.804 118.187 190.814 121.711 172.289 C 132.219 117.031 159.175 73.279 193.408 55.923 C 209.248 47.89 209.832 47.788 239.203 47.998 C 260.518 48.148 271.834 49.303 279.102 52.068 C 326.162 69.962 357.07 123.126 367.603 204.303 C 372.642 243.135 367.917 315.268 357.892 352.492 C 354.197 366.214 356.605 368.132 379.821 369.961 C 404.273 371.889 413.948 374.521 412.579 378.874 C 410.097 386.782 411.852 404.643 415.689 410.501 C 425.377 425.288 446.137 430.242 462.267 421.616 C 474.058 415.311 479.853 404.285 479.154 389.478 C 478.253 370.358 477.985 369.119 474.765 369.119 C 473.087 369.119 471.71 368.32 471.705 367.34 C 471.694 364.755 452.947 357.566 443.257 356.427 C 431.881 355.09 426.658 352.638 426.658 348.635 C 426.658 346.776 425.063 344.643 423.113 343.896 C 421.164 343.146 420.16 341.582 420.883 340.412 C 421.603 339.246 420.949 338.291 419.429 338.291 C 417.904 338.291 417.297 336.64 418.077 334.609 C 418.853 332.585 418.554 331.505 417.414 332.212 C 416.273 332.916 414.783 331.373 414.105 328.778 C 413.425 326.17 414.046 324.061 415.496 324.061 C 417.406 324.061 417.408 323.35 415.508 321.451 C 412.226 318.168 415.054 307.611 421.716 298.256 C 428.073 289.326 443.609 283.191 457.375 284.167 L 468.157 284.932 L 472.294 273.075 C 475.395 264.179 476.263 255.294 475.768 237.504 C 475.407 224.46 474.181 212.29 473.045 210.457 C 471.91 208.624 470.56 203.318 470.047 198.668 C 469.535 194.019 467.963 189.5 466.553 188.63 C 465.146 187.76 464.755 185.816 465.687 184.307 C 466.618 182.798 466.09 180.013 464.515 178.112 C 462.938 176.213 462.385 174.659 463.286 174.659 C 464.186 174.659 462.644 171.458 459.857 167.546 C 457.071 163.633 455.61 160.431 456.613 160.431 C 457.614 160.431 457.153 159.15 455.589 157.585 C 454.023 156.02 452.742 152.819 452.742 150.47 C 452.742 148.122 451.697 146.203 450.416 146.203 C 449.138 146.203 447.421 143.534 446.604 140.273 C 445.785 137.013 444.05 134.345 442.747 134.345 C 441.444 134.345 440.992 132.744 441.744 130.788 C 442.575 128.621 441.746 127.231 439.626 127.231 C 437.711 127.231 436.143 126.289 436.143 125.141 C 436.143 123.992 427.605 113.389 417.171 101.579 C 406.737 89.769 398.199 78.907 398.199 77.442 C 398.199 75.976 397.133 75.438 395.828 76.244 C 394.524 77.051 393.457 76.579 393.457 75.198 C 393.457 73.818 391.792 72.688 389.759 72.688 C 387.727 72.688 386.721 71.619 387.527 70.316 C 388.334 69.011 387.407 67.945 385.465 67.945 C 383.525 67.945 380.529 66.604 378.804 64.965 C 377.082 63.329 370.601 59.426 364.406 56.294 C 358.212 53.16 353.141 49.698 353.141 48.6 C 353.141 47.5 351.137 46.602 348.688 46.602 C 346.238 46.602 340.637 45.112 336.238 43.291 C 324.583 38.465 277.558 31.986 248.797 31.241 C 235.103 30.886 212.009 31.953 197.477 33.614" stroke="none" fill="#0c0c0a" fill-rule="evenodd" style=""/>
</svg>