<svg width="1200" height="267" viewBox="0 0 1200 267" fill="none" xmlns="http://www.w3.org/2000/svg">
<path opacity="0.1" fill-rule="evenodd" clip-rule="evenodd" d="M376.343 -583L426.013 -551.21L475.701 -583L525.389 -551.21L575.094 -583L624.782 -551.21L674.47 -583L724.158 -551.21L773.846 -583L823.533 -551.21L873.239 -583L922.927 -551.21L972.615 -583L1022.3 -551.21L1071.99 -583L1121.7 -551.21L1171.38 -583L1221.09 -551.21L1270.79 -583L1320.77 -551.037C1321 -550.888 1321.07 -550.579 1320.92 -550.347C1320.77 -550.114 1320.46 -550.046 1320.23 -550.195L1270.79 -581.813L1221.09 -550.022L1171.38 -581.813L1121.7 -550.022L1071.99 -581.813L1022.3 -550.022L972.615 -581.813L922.927 -550.022L873.239 -581.813L823.533 -550.022L773.846 -581.813L724.158 -550.022L674.47 -581.813L624.782 -550.022L575.094 -581.813L525.389 -550.022L475.701 -581.813L426.013 -550.022L376.343 -581.813L326.655 -550.022L276.967 -581.813L227.279 -550.022L177.592 -581.813L127.904 -550.022L78.2336 -581.813L28.5459 -550.022L-21.142 -581.813L-70.8298 -550.022L-120.769 -581.985C-121.002 -582.134 -121.07 -582.443 -120.921 -582.676C-120.772 -582.909 -120.463 -582.976 -120.23 -582.828L-70.8298 -551.21L-21.142 -583L28.5459 -551.21L78.2337 -583L127.904 -551.21L177.592 -583L227.279 -551.21L276.967 -583L326.655 -551.21L376.343 -583ZM78.2337 -551.21L127.904 -519.419L177.592 -551.21L227.279 -519.419L276.967 -551.21L326.655 -519.419L376.343 -551.21L426.013 -519.419L475.701 -551.21L525.389 -519.419L575.094 -551.21L624.782 -519.419L674.47 -551.21L724.158 -519.419L773.846 -551.21L823.533 -519.419L873.239 -551.21L922.927 -519.419L972.615 -551.21L1022.3 -519.419L1071.99 -551.21L1121.7 -519.419L1171.38 -551.21L1221.09 -519.419L1270.79 -551.21L1320.77 -519.247C1321 -519.098 1321.07 -518.789 1320.92 -518.556C1320.77 -518.324 1320.46 -518.256 1320.23 -518.404L1270.79 -550.022L1221.09 -518.232L1171.38 -550.022L1121.7 -518.232L1071.99 -550.022L1022.3 -518.232L972.615 -550.022L922.927 -518.232L873.239 -550.022L823.533 -518.232L773.846 -550.022L724.158 -518.232L674.47 -550.022L624.782 -518.232L575.094 -550.022L525.389 -518.232L475.701 -550.022L426.013 -518.232L376.343 -550.022L326.655 -518.232L276.967 -550.022L227.279 -518.232L177.592 -550.022L127.904 -518.232L78.2336 -550.022L28.5459 -518.232L-21.142 -550.022L-70.8298 -518.232L-120.769 -550.195C-121.002 -550.344 -121.07 -550.653 -120.921 -550.886C-120.772 -551.118 -120.463 -551.186 -120.23 -551.037L-70.8298 -519.419L-21.142 -551.21L28.5459 -519.419L78.2337 -551.21ZM78.2337 -519.42L127.904 -487.486L177.592 -519.42L227.279 -487.486L276.967 -519.42L326.655 -487.486L376.343 -519.42L426.013 -487.486L475.701 -519.42L525.389 -487.486L575.094 -519.42L624.782 -487.486L674.47 -519.42L724.158 -487.486L773.846 -519.42L823.533 -487.486L873.239 -519.42L922.927 -487.486L972.615 -519.42L1022.3 -487.486L1071.99 -519.42L1121.7 -487.486L1171.38 -519.42L1221.09 -487.486L1270.79 -519.42L1320.77 -487.313C1321 -487.163 1321.07 -486.854 1320.92 -486.622C1320.77 -486.389 1320.46 -486.322 1320.23 -486.471L1270.79 -518.231L1221.09 -486.298L1171.38 -518.231L1121.7 -486.298L1071.99 -518.231L1022.3 -486.298L972.615 -518.231L922.927 -486.298L873.239 -518.231L823.533 -486.298L773.846 -518.231L724.158 -486.298L674.47 -518.231L624.782 -486.298L575.094 -518.231L525.389 -486.298L475.701 -518.231L426.013 -486.298L376.343 -518.231L326.655 -486.298L276.967 -518.231L227.279 -486.298L177.592 -518.231L127.904 -486.298L78.2336 -518.231L28.5459 -486.298L-21.142 -518.231L-70.8298 -486.298L-120.77 -518.405C-121.003 -518.554 -121.07 -518.864 -120.921 -519.096C-120.771 -519.328 -120.462 -519.396 -120.23 -519.246L-70.8298 -487.486L-21.142 -519.42L28.5459 -487.486L78.2337 -519.42ZM78.2337 -487.486L127.904 -455.695L177.592 -487.486L227.279 -455.695L276.967 -487.486L326.655 -455.695L376.343 -487.486L426.013 -455.695L475.701 -487.486L525.389 -455.695L575.094 -487.486L624.782 -455.695L674.47 -487.486L724.158 -455.695L773.846 -487.486L823.533 -455.695L873.239 -487.486L922.927 -455.695L972.615 -487.486L1022.3 -455.695L1071.99 -487.486L1121.7 -455.695L1171.38 -487.486L1221.09 -455.695L1270.79 -487.486L1320.77 -455.523C1321 -455.374 1321.07 -455.065 1320.92 -454.832C1320.77 -454.6 1320.46 -454.532 1320.23 -454.68L1270.79 -486.298L1221.09 -454.508L1171.38 -486.298L1121.7 -454.508L1071.99 -486.298L1022.3 -454.508L972.615 -486.298L922.927 -454.508L873.239 -486.298L823.533 -454.508L773.846 -486.298L724.158 -454.508L674.47 -486.298L624.782 -454.508L575.094 -486.298L525.389 -454.508L475.701 -486.298L426.013 -454.508L376.343 -486.298L326.655 -454.508L276.967 -486.298L227.279 -454.508L177.592 -486.298L127.904 -454.508L78.2336 -486.298L28.5459 -454.508L-21.142 -486.298L-70.8298 -454.508L-120.769 -486.471C-121.002 -486.62 -121.07 -486.929 -120.921 -487.162C-120.772 -487.394 -120.463 -487.462 -120.23 -487.313L-70.8298 -455.695L-21.142 -487.486L28.5459 -455.695L78.2337 -487.486ZM78.2337 -455.695L127.904 -423.905L177.592 -455.695L227.279 -423.905L276.967 -455.695L326.655 -423.905L376.343 -455.695L426.013 -423.905L475.701 -455.695L525.389 -423.905L575.094 -455.695L624.782 -423.905L674.47 -455.695L724.158 -423.905L773.846 -455.695L823.533 -423.905L873.239 -455.695L922.927 -423.905L972.615 -455.695L1022.3 -423.905L1071.99 -455.695L1121.7 -423.905L1171.38 -455.695L1221.09 -423.905L1270.79 -455.695L1320.77 -423.732C1321 -423.584 1321.07 -423.274 1320.92 -423.042C1320.77 -422.809 1320.46 -422.741 1320.23 -422.89L1270.79 -454.508L1221.09 -422.718L1171.38 -454.508L1121.7 -422.718L1071.99 -454.508L1022.3 -422.718L972.615 -454.508L922.927 -422.718L873.239 -454.508L823.533 -422.718L773.846 -454.508L724.158 -422.718L674.47 -454.508L624.782 -422.718L575.094 -454.508L525.389 -422.718L475.701 -454.508L426.013 -422.718L376.343 -454.508L326.655 -422.718L276.967 -454.508L227.279 -422.718L177.592 -454.508L127.904 -422.718L78.2336 -454.508L28.5459 -422.718L-21.142 -454.508L-70.8298 -422.718L-120.769 -454.68C-121.002 -454.829 -121.07 -455.139 -120.921 -455.371C-120.772 -455.604 -120.463 -455.672 -120.23 -455.523L-70.8298 -423.905L-21.142 -455.695L28.5459 -423.905L78.2337 -455.695ZM78.2337 -423.905L127.904 -392.114L177.592 -423.905L227.279 -392.114L276.967 -423.905L326.655 -392.114L376.343 -423.905L426.013 -392.114L475.701 -423.905L525.389 -392.114L575.094 -423.905L624.782 -392.114L674.47 -423.905L724.158 -392.114L773.846 -423.905L823.533 -392.114L873.239 -423.905L922.927 -392.114L972.615 -423.905L1022.3 -392.114L1071.99 -423.905L1121.7 -392.114L1171.38 -423.905L1221.09 -392.114L1270.79 -423.905L1320.77 -391.942C1321 -391.793 1321.07 -391.484 1320.92 -391.251C1320.77 -391.019 1320.46 -390.951 1320.23 -391.1L1270.79 -422.718L1221.09 -390.927L1171.38 -422.718L1121.7 -390.927L1071.99 -422.718L1022.3 -390.927L972.615 -422.718L922.927 -390.927L873.239 -422.718L823.533 -390.927L773.846 -422.718L724.158 -390.927L674.47 -422.718L624.782 -390.927L575.094 -422.718L525.389 -390.927L475.701 -422.718L426.013 -390.927L376.343 -422.718L326.655 -390.927L276.967 -422.718L227.279 -390.927L177.592 -422.718L127.904 -390.927L78.2336 -422.718L28.5459 -390.927L-21.142 -422.718L-70.8298 -390.927L-120.769 -422.89C-121.002 -423.039 -121.07 -423.348 -120.921 -423.581C-120.772 -423.813 -120.463 -423.881 -120.23 -423.732L-70.8298 -392.114L-21.142 -423.905L28.5459 -392.114L78.2337 -423.905ZM78.2337 -392.115L127.904 -360.182L177.592 -392.115L227.279 -360.182L276.967 -392.115L326.655 -360.182L376.343 -392.115L426.013 -360.182L475.701 -392.115L525.389 -360.182L575.094 -392.115L624.782 -360.182L674.47 -392.115L724.158 -360.182L773.846 -392.115L823.533 -360.182L873.239 -392.115L922.927 -360.182L972.615 -392.115L1022.3 -360.182L1071.99 -392.115L1121.7 -360.182L1171.38 -392.115L1221.09 -360.181L1270.79 -392.115L1320.77 -360.008C1321 -359.859 1321.07 -359.549 1320.92 -359.317C1320.77 -359.085 1320.46 -359.017 1320.23 -359.167L1270.79 -390.926L1221.09 -358.993L1171.38 -390.926L1121.7 -358.993L1071.99 -390.926L1022.3 -358.993L972.615 -390.926L922.927 -358.993L873.239 -390.926L823.533 -358.993L773.846 -390.926L724.158 -358.993L674.47 -390.926L624.782 -358.993L575.094 -390.926L525.389 -358.993L475.701 -390.926L426.013 -358.993L376.343 -390.926L326.655 -358.993L276.967 -390.926L227.279 -358.993L177.592 -390.926L127.904 -358.993L78.2336 -390.926L28.5459 -358.993L-21.142 -390.926L-70.8298 -358.993L-120.77 -391.1C-121.003 -391.25 -121.07 -391.559 -120.921 -391.791C-120.771 -392.023 -120.462 -392.091 -120.23 -391.941L-70.8298 -360.182L-21.142 -392.115L28.5459 -360.182L78.2337 -392.115ZM78.2337 -360.181L127.904 -328.39L177.592 -360.181L227.279 -328.39L276.967 -360.181L326.655 -328.39L376.343 -360.181L426.013 -328.39L475.701 -360.181L525.389 -328.39L575.094 -360.181L624.782 -328.39L674.47 -360.181L724.158 -328.39L773.846 -360.181L823.533 -328.39L873.239 -360.181L922.927 -328.39L972.615 -360.181L1022.3 -328.39L1071.99 -360.181L1121.7 -328.39L1171.38 -360.181L1221.09 -328.39L1270.79 -360.181L1320.77 -328.218C1321 -328.069 1321.07 -327.76 1320.92 -327.527C1320.77 -327.295 1320.46 -327.227 1320.23 -327.376L1270.79 -358.994L1221.09 -327.203L1171.38 -358.994L1121.7 -327.203L1071.99 -358.994L1022.3 -327.203L972.615 -358.994L922.927 -327.203L873.239 -358.994L823.533 -327.203L773.846 -358.994L724.158 -327.203L674.47 -358.994L624.782 -327.203L575.094 -358.994L525.389 -327.203L475.701 -358.994L426.013 -327.203L376.343 -358.994L326.655 -327.203L276.967 -358.994L227.279 -327.203L177.592 -358.994L127.904 -327.203L78.2336 -358.994L28.5459 -327.203L-21.142 -358.994L-70.8298 -327.203L-120.769 -359.166C-121.002 -359.315 -121.07 -359.624 -120.921 -359.857C-120.772 -360.089 -120.463 -360.157 -120.23 -360.008L-70.8298 -328.39L-21.142 -360.181L28.5459 -328.39L78.2337 -360.181ZM78.2337 -328.39L127.904 -296.6L177.592 -328.39L227.279 -296.6L276.967 -328.39L326.655 -296.6L376.343 -328.39L426.013 -296.6L475.701 -328.39L525.389 -296.6L575.094 -328.39L624.782 -296.6L674.47 -328.39L724.158 -296.6L773.846 -328.39L823.533 -296.6L873.239 -328.39L922.927 -296.6L972.615 -328.39L1022.3 -296.6L1071.99 -328.39L1121.7 -296.6L1171.38 -328.39L1221.09 -296.6L1270.79 -328.39L1320.77 -296.428C1321 -296.279 1321.07 -295.97 1320.92 -295.737C1320.77 -295.504 1320.46 -295.436 1320.23 -295.585L1270.79 -327.203L1221.09 -295.413L1171.38 -327.203L1121.7 -295.413L1071.99 -327.203L1022.3 -295.413L972.615 -327.203L922.927 -295.413L873.239 -327.203L823.533 -295.413L773.846 -327.203L724.158 -295.413L674.47 -327.203L624.782 -295.413L575.094 -327.203L525.389 -295.413L475.701 -327.203L426.013 -295.413L376.343 -327.203L326.655 -295.413L276.967 -327.203L227.279 -295.413L177.592 -327.203L127.904 -295.413L78.2336 -327.203L28.5459 -295.413L-21.142 -327.203L-70.8298 -295.413L-120.769 -327.376C-121.002 -327.525 -121.07 -327.834 -120.921 -328.066C-120.772 -328.299 -120.463 -328.367 -120.23 -328.218L-70.8297 -296.6L-21.142 -328.39L28.5459 -296.6L78.2337 -328.39ZM78.2337 -296.6L127.904 -264.81L177.592 -296.6L227.279 -264.81L276.967 -296.6L326.655 -264.81L376.343 -296.6L426.013 -264.81L475.701 -296.6L525.389 -264.81L575.094 -296.6L624.782 -264.81L674.47 -296.6L724.158 -264.81L773.846 -296.6L823.533 -264.81L873.239 -296.6L922.927 -264.81L972.615 -296.6L1022.3 -264.81L1071.99 -296.6L1121.7 -264.81L1171.38 -296.6L1221.09 -264.81L1270.79 -296.6L1320.77 -264.637C1321 -264.488 1321.07 -264.179 1320.92 -263.947C1320.77 -263.714 1320.46 -263.646 1320.23 -263.795L1270.79 -295.413L1221.09 -263.622L1171.38 -295.413L1121.7 -263.622L1071.99 -295.413L1022.3 -263.622L972.615 -295.413L922.927 -263.622L873.239 -295.413L823.533 -263.622L773.846 -295.413L724.158 -263.622L674.47 -295.413L624.782 -263.622L575.094 -295.413L525.389 -263.622L475.701 -295.413L426.013 -263.622L376.343 -295.413L326.655 -263.622L276.967 -295.413L227.279 -263.622L177.592 -295.413L127.904 -263.622L78.2336 -295.413L28.5459 -263.622L-21.142 -295.413L-70.8298 -263.622L-120.769 -295.585C-121.002 -295.734 -121.07 -296.043 -120.921 -296.276C-120.772 -296.509 -120.463 -296.576 -120.23 -296.428L-70.8297 -264.81L-21.142 -296.6L28.5459 -264.81L78.2337 -296.6ZM78.2337 -264.81L127.904 -233.019L177.592 -264.81L227.279 -233.019L276.967 -264.81L326.655 -233.019L376.343 -264.81L426.013 -233.019L475.701 -264.81L525.389 -233.019L575.094 -264.81L624.782 -233.019L674.47 -264.81L724.158 -233.019L773.846 -264.81L823.533 -233.019L873.239 -264.81L922.927 -233.019L972.615 -264.81L1022.3 -233.019L1071.99 -264.81L1121.7 -233.019L1171.38 -264.81L1221.09 -233.019L1270.79 -264.81L1320.77 -232.847C1321 -232.698 1321.07 -232.389 1320.92 -232.156C1320.77 -231.924 1320.46 -231.856 1320.23 -232.004L1270.79 -263.622L1221.09 -231.832L1171.38 -263.622L1121.7 -231.832L1071.99 -263.622L1022.3 -231.832L972.615 -263.622L922.927 -231.832L873.239 -263.622L823.533 -231.832L773.846 -263.622L724.158 -231.832L674.47 -263.622L624.782 -231.832L575.094 -263.622L525.389 -231.832L475.701 -263.622L426.013 -231.832L376.343 -263.622L326.655 -231.832L276.967 -263.622L227.279 -231.832L177.592 -263.622L127.904 -231.832L78.2336 -263.622L28.5459 -231.832L-21.142 -263.622L-70.8298 -231.832L-120.769 -263.795C-121.002 -263.944 -121.07 -264.253 -120.921 -264.486C-120.772 -264.718 -120.463 -264.786 -120.23 -264.637L-70.8298 -233.019L-21.142 -264.81L28.5459 -233.019L78.2337 -264.81ZM78.2337 -233.02L127.904 -201.086L177.592 -233.02L227.279 -201.086L276.967 -233.02L326.655 -201.086L376.343 -233.02L426.013 -201.086L475.701 -233.02L525.389 -201.086L575.094 -233.02L624.782 -201.086L674.47 -233.02L724.158 -201.086L773.846 -233.02L823.533 -201.086L873.239 -233.02L922.927 -201.086L972.615 -233.02L1022.3 -201.086L1071.99 -233.02L1121.7 -201.086L1171.38 -233.02L1221.09 -201.086L1270.79 -233.02L1320.77 -200.913C1321 -200.763 1321.07 -200.454 1320.92 -200.222C1320.77 -199.989 1320.46 -199.922 1320.23 -200.071L1270.79 -231.831L1221.09 -199.898L1171.38 -231.831L1121.7 -199.898L1071.99 -231.831L1022.3 -199.898L972.615 -231.831L922.927 -199.898L873.239 -231.831L823.533 -199.898L773.846 -231.831L724.158 -199.898L674.47 -231.831L624.782 -199.898L575.094 -231.831L525.389 -199.898L475.701 -231.831L426.013 -199.898L376.343 -231.831L326.655 -199.898L276.967 -231.831L227.279 -199.898L177.592 -231.831L127.904 -199.898L78.2336 -231.831L28.5459 -199.898L-21.142 -231.831L-70.8298 -199.898L-120.77 -232.005C-121.003 -232.154 -121.07 -232.464 -120.921 -232.696C-120.771 -232.928 -120.462 -232.996 -120.23 -232.846L-70.8297 -201.086L-21.142 -233.02L28.5459 -201.086L78.2337 -233.02ZM78.2337 -201.086L127.904 -169.295L177.592 -201.086L227.279 -169.295L276.967 -201.086L326.655 -169.295L376.343 -201.086L426.013 -169.295L475.701 -201.086L525.389 -169.295L575.094 -201.086L624.782 -169.295L674.47 -201.086L724.158 -169.295L773.846 -201.086L823.533 -169.295L873.239 -201.086L922.927 -169.295L972.615 -201.086L1022.3 -169.295L1071.99 -201.086L1121.7 -169.295L1171.38 -201.086L1221.09 -169.295L1270.79 -201.086L1320.77 -169.123C1321 -168.974 1321.07 -168.665 1320.92 -168.432C1320.77 -168.2 1320.46 -168.132 1320.23 -168.28L1270.79 -199.898L1221.09 -168.108L1171.38 -199.898L1121.7 -168.108L1071.99 -199.898L1022.3 -168.108L972.615 -199.898L922.927 -168.108L873.239 -199.898L823.533 -168.108L773.846 -199.898L724.158 -168.108L674.47 -199.898L624.782 -168.108L575.094 -199.898L525.389 -168.108L475.701 -199.898L426.013 -168.108L376.343 -199.898L326.655 -168.108L276.967 -199.898L227.279 -168.108L177.592 -199.898L127.904 -168.108L78.2336 -199.898L28.5459 -168.108L-21.142 -199.898L-70.8298 -168.108L-120.769 -200.071C-121.002 -200.22 -121.07 -200.529 -120.921 -200.762C-120.772 -200.994 -120.463 -201.062 -120.23 -200.913L-70.8298 -169.295L-21.142 -201.086L28.5459 -169.295L78.2337 -201.086ZM78.2337 -169.295L127.904 -137.505L177.592 -169.295L227.279 -137.505L276.967 -169.295L326.655 -137.505L376.343 -169.295L426.013 -137.505L475.701 -169.295L525.389 -137.505L575.094 -169.295L624.782 -137.505L674.47 -169.295L724.158 -137.505L773.846 -169.295L823.533 -137.505L873.239 -169.295L922.927 -137.505L972.615 -169.295L1022.3 -137.505L1071.99 -169.295L1121.7 -137.505L1171.38 -169.295L1221.09 -137.505L1270.79 -169.295L1320.77 -137.332C1321 -137.184 1321.07 -136.874 1320.92 -136.642C1320.77 -136.409 1320.46 -136.341 1320.23 -136.49L1270.79 -168.108L1221.09 -136.318L1171.38 -168.108L1121.7 -136.318L1071.99 -168.108L1022.3 -136.318L972.615 -168.108L922.927 -136.318L873.239 -168.108L823.533 -136.318L773.846 -168.108L724.158 -136.318L674.47 -168.108L624.782 -136.318L575.094 -168.108L525.389 -136.318L475.701 -168.108L426.013 -136.318L376.343 -168.108L326.655 -136.318L276.967 -168.108L227.279 -136.318L177.592 -168.108L127.904 -136.318L78.2336 -168.108L28.5459 -136.318L-21.142 -168.108L-70.8298 -136.318L-120.769 -168.28C-121.002 -168.429 -121.07 -168.739 -120.921 -168.971C-120.772 -169.204 -120.463 -169.272 -120.23 -169.123L-70.8298 -137.505L-21.142 -169.295L28.5459 -137.505L78.2337 -169.295ZM78.2337 -137.505L127.904 -105.714L177.592 -137.505L227.279 -105.714L276.967 -137.505L326.655 -105.714L376.343 -137.505L426.013 -105.714L475.701 -137.505L525.389 -105.714L575.094 -137.505L624.782 -105.714L674.47 -137.505L724.158 -105.714L773.846 -137.505L823.533 -105.714L873.239 -137.505L922.927 -105.714L972.615 -137.505L1022.3 -105.714L1071.99 -137.505L1121.7 -105.714L1171.38 -137.505L1221.09 -105.714L1270.79 -137.505L1320.77 -105.542C1321 -105.393 1321.07 -105.084 1320.92 -104.851C1320.77 -104.619 1320.46 -104.551 1320.23 -104.7L1270.79 -136.318L1221.09 -104.527L1171.38 -136.318L1121.7 -104.527L1071.99 -136.318L1022.3 -104.527L972.615 -136.318L922.927 -104.527L873.239 -136.318L823.533 -104.527L773.846 -136.318L724.158 -104.527L674.47 -136.318L624.782 -104.527L575.094 -136.318L525.389 -104.527L475.701 -136.318L426.013 -104.527L376.343 -136.318L326.655 -104.527L276.967 -136.318L227.279 -104.527L177.592 -136.318L127.904 -104.527L78.2336 -136.318L28.5459 -104.527L-21.142 -136.318L-70.8298 -104.527L-120.769 -136.49C-121.002 -136.639 -121.07 -136.948 -120.921 -137.181C-120.772 -137.413 -120.463 -137.481 -120.23 -137.332L-70.8297 -105.714L-21.142 -137.505L28.5459 -105.714L78.2337 -137.505ZM78.2337 -105.715L127.904 -73.7816L177.592 -105.715L227.279 -73.7816L276.967 -105.715L326.655 -73.7816L376.343 -105.715L426.013 -73.7816L475.701 -105.715L525.389 -73.7816L575.094 -105.715L624.782 -73.7816L674.47 -105.715L724.158 -73.7816L773.846 -105.715L823.533 -73.7816L873.239 -105.715L922.927 -73.7816L972.615 -105.715L1022.3 -73.7816L1071.99 -105.715L1121.7 -73.7815L1171.38 -105.715L1221.09 -73.7815L1270.79 -105.715L1320.77 -73.6079C1321 -73.4586 1321.07 -73.1493 1320.92 -72.917C1320.77 -72.6846 1320.46 -72.6173 1320.23 -72.7665L1270.79 -104.527L1221.09 -72.5929L1171.38 -104.527L1121.7 -72.5929L1071.99 -104.527L1022.3 -72.5929L972.615 -104.526L922.927 -72.5929L873.239 -104.527L823.533 -72.5929L773.846 -104.526L724.158 -72.5929L674.47 -104.526L624.782 -72.5929L575.094 -104.526L525.389 -72.5929L475.701 -104.526L426.013 -72.5928L376.343 -104.526L326.655 -72.5929L276.967 -104.526L227.279 -72.5929L177.592 -104.526L127.904 -72.5928L78.2336 -104.526L28.5459 -72.5929L-21.142 -104.526L-70.8298 -72.5928L-120.77 -104.7C-121.003 -104.85 -121.07 -105.159 -120.921 -105.391C-120.771 -105.624 -120.462 -105.691 -120.23 -105.541L-70.8298 -73.7816L-21.142 -105.715L28.5459 -73.7816L78.2337 -105.715ZM78.2337 -73.7808L127.904 -41.9904L177.592 -73.7808L227.279 -41.9904L276.967 -73.7808L326.655 -41.9904L376.343 -73.7808L426.013 -41.9904L475.701 -73.7808L525.389 -41.9904L575.094 -73.7808L624.782 -41.9904L674.47 -73.7808L724.158 -41.9904L773.846 -73.7808L823.533 -41.9904L873.239 -73.7808L922.927 -41.9904L972.615 -73.7808L1022.3 -41.9904L1071.99 -73.7808L1121.7 -41.9904L1171.38 -73.7808L1221.09 -41.9903L1270.79 -73.7807L1320.77 -41.818C1321 -41.6693 1321.07 -41.36 1320.92 -41.1274C1320.77 -40.8948 1320.46 -40.8268 1320.23 -40.9756L1270.79 -72.5937L1221.09 -40.8033L1171.38 -72.5937L1121.7 -40.8032L1071.99 -72.5937L1022.3 -40.8032L972.615 -72.5937L922.927 -40.8032L873.239 -72.5937L823.533 -40.8032L773.846 -72.5937L724.158 -40.8032L674.47 -72.5937L624.782 -40.8032L575.094 -72.5937L525.389 -40.8032L475.701 -72.5937L426.013 -40.8032L376.343 -72.5936L326.655 -40.8032L276.967 -72.5937L227.279 -40.8032L177.592 -72.5937L127.904 -40.8032L78.2336 -72.5936L28.5459 -40.8032L-21.142 -72.5937L-70.8298 -40.8032L-120.769 -72.7661C-121.002 -72.9149 -121.07 -73.2242 -120.921 -73.4568C-120.772 -73.6893 -120.463 -73.7572 -120.23 -73.6083L-70.8298 -41.9904L-21.142 -73.7808L28.5459 -41.9904L78.2337 -73.7808ZM78.2337 -41.9904L127.904 -10.2L177.592 -41.9904L227.279 -10.2L276.967 -41.9904L326.655 -10.2L376.343 -41.9904L426.013 -10.2L475.701 -41.9904L525.389 -10.2L575.094 -41.9904L624.782 -10.2L674.47 -41.9904L724.158 -10.2L773.846 -41.9904L823.533 -10.2L873.239 -41.9904L922.927 -10.2L972.615 -41.9904L1022.3 -10.2L1071.99 -41.9904L1121.7 -10.2L1171.38 -41.9904L1221.09 -10.1999L1270.79 -41.9903L1320.77 -10.0276C1321 -9.87885 1321.07 -9.56964 1320.92 -9.33698C1320.77 -9.10437 1320.46 -9.03638 1320.23 -9.18518L1270.79 -40.8033L1221.09 -9.01288L1171.38 -40.8033L1121.7 -9.01282L1071.99 -40.8033L1022.3 -9.01282L972.615 -40.8032L922.927 -9.01282L873.239 -40.8033L823.533 -9.01282L773.846 -40.8032L724.158 -9.01282L674.47 -40.8032L624.782 -9.01282L575.094 -40.8033L525.389 -9.01282L475.701 -40.8032L426.013 -9.01276L376.343 -40.8032L326.655 -9.01282L276.967 -40.8032L227.279 -9.01282L177.592 -40.8032L127.904 -9.01276L78.2336 -40.8032L28.5459 -9.01282L-21.142 -40.8032L-70.8298 -9.01276L-120.769 -40.9756C-121.002 -41.1245 -121.07 -41.4337 -120.921 -41.6663C-120.772 -41.8989 -120.463 -41.9668 -120.23 -41.8179L-70.8298 -10.2L-21.142 -41.9904L28.5459 -10.2L78.2337 -41.9904ZM78.2337 -10.2L127.904 21.5904L177.592 -10.2L227.279 21.5904L276.967 -10.2L326.655 21.5904L376.343 -10.2L426.013 21.5904L475.701 -10.2L525.389 21.5905L575.094 -10.2L624.782 21.5904L674.47 -10.2L724.158 21.5904L773.846 -10.2L823.533 21.5905L873.239 -10.2L922.927 21.5904L972.615 -10.2L1022.3 21.5904L1071.99 -10.2L1121.7 21.5905L1171.38 -10.2L1221.09 21.5905L1270.79 -10.1999L1320.77 21.7628C1321 21.9116 1321.07 22.2208 1320.92 22.4534C1320.77 22.686 1320.46 22.754 1320.23 22.6052L1270.79 -9.01288L1221.09 22.7775L1171.38 -9.01288L1121.7 22.7775L1071.99 -9.01288L1022.3 22.7776L972.615 -9.01282L922.927 22.7776L873.239 -9.01288L823.533 22.7775L773.846 -9.01282L724.158 22.7776L674.47 -9.01282L624.782 22.7776L575.094 -9.01288L525.389 22.7775L475.701 -9.01282L426.013 22.7776L376.343 -9.01276L326.655 22.7776L276.967 -9.01282L227.279 22.7776L177.592 -9.01282L127.904 22.7776L78.2336 -9.01276L28.5459 22.7776L-21.142 -9.01282L-70.8298 22.7776L-120.769 -9.18524C-121.002 -9.33411 -121.07 -9.64337 -120.921 -9.87592C-120.772 -10.1085 -120.463 -10.1764 -120.23 -10.0275L-70.8298 21.5904L-21.142 -10.2L28.5459 21.5904L78.2337 -10.2ZM78.2337 21.5904L127.904 53.3808L177.592 21.5905L227.279 53.3808L276.967 21.5905L326.655 53.3808L376.343 21.5904L426.013 53.3808L475.701 21.5905L525.389 53.3809L575.094 21.5905L624.782 53.3808L674.47 21.5905L724.158 53.3808L773.846 21.5905L823.533 53.3809L873.239 21.5905L922.927 53.3808L972.615 21.5905L1022.3 53.3808L1071.99 21.5905L1121.7 53.3809L1171.38 21.5905L1221.09 53.3809L1270.79 21.5905L1320.77 53.5532C1321 53.702 1321.07 54.0112 1320.92 54.2438C1320.77 54.4764 1320.46 54.5444 1320.23 54.3956L1270.79 22.7775L1221.09 54.5679L1171.38 22.7775L1121.7 54.5679L1071.99 22.7775L1022.3 54.568L972.615 22.7776L922.927 54.568L873.239 22.7775L823.533 54.5679L773.846 22.7776L724.158 54.568L674.47 22.7776L624.782 54.568L575.094 22.7775L525.389 54.5679L475.701 22.7776L426.013 54.568L376.343 22.7776L326.655 54.568L276.967 22.7776L227.279 54.568L177.592 22.7776L127.904 54.568L78.2336 22.7776L28.5459 54.568L-21.142 22.7776L-70.8298 54.568L-120.769 22.6052C-121.002 22.4563 -121.07 22.147 -120.921 21.9145C-120.772 21.6819 -120.463 21.614 -120.23 21.7629L-70.8298 53.3808L-21.142 21.5905L28.5459 53.3808L78.2337 21.5904ZM78.2337 53.38L127.904 85.3136L177.592 53.3801L227.279 85.3137L276.967 53.3801L326.655 85.3137L376.343 53.38L426.013 85.3136L475.701 53.3801L525.389 85.3137L575.094 53.3801L624.782 85.3137L674.47 53.3801L724.158 85.3137L773.846 53.3801L823.533 85.3137L873.239 53.3801L922.927 85.3137L972.615 53.3801L1022.3 85.3137L1071.99 53.3801L1121.7 85.3137L1171.38 53.3801L1221.09 85.3137L1270.79 53.3801L1320.77 85.4874C1321 85.6366 1321.07 85.9459 1320.92 86.1783C1320.77 86.4106 1320.46 86.4779 1320.23 86.3287L1270.79 54.5687L1221.09 86.5023L1171.38 54.5687L1121.7 86.5023L1071.99 54.5687L1022.3 86.5024L972.615 54.5687L922.927 86.5024L873.239 54.5687L823.533 86.5023L773.846 54.5687L724.158 86.5024L674.47 54.5687L624.782 86.5024L575.094 54.5687L525.389 86.5023L475.701 54.5687L426.013 86.5024L376.343 54.5688L326.655 86.5024L276.967 54.5687L227.279 86.5024L177.592 54.5687L127.904 86.5024L78.2336 54.5688L28.5459 86.5024L-21.142 54.5687L-70.8298 86.5024L-120.77 54.395C-121.003 54.2457 -121.07 53.9363 -120.921 53.704C-120.771 53.4717 -120.462 53.4045 -120.23 53.5538L-70.8298 85.3136L-21.142 53.3801L28.5459 85.3137L78.2337 53.38ZM78.2337 85.3144L127.904 117.105L177.592 85.3145L227.279 117.105L276.967 85.3145L326.655 117.105L376.343 85.3144L426.013 117.105L475.701 85.3145L525.389 117.105L575.094 85.3145L624.782 117.105L674.47 85.3145L724.158 117.105L773.846 85.3145L823.533 117.105L873.239 85.3145L922.927 117.105L972.615 85.3145L1022.3 117.105L1071.99 85.3145L1121.7 117.105L1171.38 85.3145L1221.09 117.105L1270.79 85.3145L1320.77 117.277C1321 117.426 1321.07 117.735 1320.92 117.968C1320.77 118.2 1320.46 118.268 1320.23 118.12L1270.79 86.5015L1221.09 118.292L1171.38 86.5015L1121.7 118.292L1071.99 86.5015L1022.3 118.292L972.615 86.5016L922.927 118.292L873.239 86.5015L823.533 118.292L773.846 86.5016L724.158 118.292L674.47 86.5016L624.782 118.292L575.094 86.5015L525.389 118.292L475.701 86.5016L426.013 118.292L376.343 86.5016L326.655 118.292L276.967 86.5016L227.279 118.292L177.592 86.5016L127.904 118.292L78.2336 86.5016L28.5459 118.292L-21.142 86.5016L-70.8298 118.292L-120.769 86.3292C-121.002 86.1803 -121.07 85.871 -120.921 85.6385C-120.772 85.4059 -120.463 85.338 -120.23 85.4869L-70.8298 117.105L-21.142 85.3145L28.5459 117.105L78.2337 85.3144ZM-21.142 117.105L28.5459 148.895L78.2337 117.105L127.904 148.895L177.592 117.105L227.279 148.895L276.967 117.105L326.655 148.895L376.343 117.105L426.013 148.895L475.701 117.105L525.389 148.895L575.094 117.105L624.782 148.895L674.47 117.105L724.158 148.895L773.846 117.105L823.533 148.895L873.239 117.105L922.927 148.895L972.615 117.105L1022.3 148.895L1071.99 117.105L1121.7 148.895L1171.38 117.105L1221.09 148.895L1270.79 117.105L1320.77 149.068C1321 149.216 1321.07 149.526 1320.92 149.758C1320.77 149.991 1320.46 150.059 1320.23 149.91L1270.79 118.292L1221.09 150.082L1171.38 118.292L1121.7 150.082L1071.99 118.292L1022.3 150.082L972.615 118.292L922.927 150.082L873.239 118.292L823.533 150.082L773.846 118.292L724.158 150.082L674.47 118.292L624.782 150.082L575.094 118.292L525.389 150.082L475.701 118.292L426.013 150.082L376.343 118.292L326.655 150.082L276.967 118.292L227.279 150.082L177.592 118.292L127.904 150.082L78.2336 118.292L28.5459 150.082L-21.142 118.292L-70.8298 150.082L-120.769 118.12C-121.002 117.971 -121.07 117.661 -120.921 117.429C-120.772 117.196 -120.463 117.128 -120.23 117.277L-70.8298 148.895L-21.142 117.105ZM-21.142 148.895L28.5459 180.686L78.2337 148.895L127.904 180.686L177.592 148.895L227.279 180.686L276.967 148.895L326.655 180.686L376.343 148.895L426.013 180.686L475.701 148.895L525.389 180.686L575.094 148.895L624.782 180.686L674.47 148.895L724.158 180.686L773.846 148.895L823.533 180.686L873.239 148.895L922.927 180.686L972.615 148.895L1022.3 180.686L1071.99 148.895L1121.7 180.686L1171.38 148.895L1221.09 180.686L1270.79 148.895L1320.77 180.858C1321 181.007 1321.07 181.316 1320.92 181.549C1320.77 181.781 1320.46 181.849 1320.23 181.7L1270.79 150.082L1221.09 181.873L1171.38 150.082L1121.7 181.873L1071.99 150.082L1022.3 181.873L972.615 150.082L922.927 181.873L873.239 150.082L823.533 181.873L773.846 150.082L724.158 181.873L674.47 150.082L624.782 181.873L575.094 150.082L525.389 181.873L475.701 150.082L426.013 181.873L376.343 150.082L326.655 181.873L276.967 150.082L227.279 181.873L177.592 150.082L127.904 181.873L78.2336 150.082L28.5459 181.873L-21.142 150.082L-70.8298 181.873L-120.769 149.91C-121.002 149.761 -121.07 149.452 -120.921 149.219C-120.772 148.987 -120.463 148.919 -120.23 149.068L-70.8298 180.686L-21.142 148.895ZM-21.142 180.685L28.5459 212.618L78.2337 180.685L127.904 212.618L177.592 180.685L227.279 212.618L276.967 180.685L326.655 212.618L376.343 180.685L426.013 212.618L475.701 180.685L525.389 212.618L575.094 180.685L624.782 212.618L674.47 180.685L724.158 212.618L773.846 180.685L823.533 212.618L873.239 180.685L922.927 212.618L972.615 180.685L1022.3 212.618L1071.99 180.685L1121.7 212.618L1171.38 180.685L1221.09 212.618L1270.79 180.685L1320.77 212.792C1321 212.941 1321.07 213.251 1320.92 213.483C1320.77 213.715 1320.46 213.783 1320.23 213.633L1270.79 181.874L1221.09 213.807L1171.38 181.874L1121.7 213.807L1071.99 181.874L1022.3 213.807L972.615 181.874L922.927 213.807L873.239 181.874L823.533 213.807L773.846 181.874L724.158 213.807L674.47 181.874L624.782 213.807L575.094 181.874L525.389 213.807L475.701 181.874L426.013 213.807L376.343 181.874L326.655 213.807L276.967 181.874L227.279 213.807L177.592 181.874L127.904 213.807L78.2336 181.874L28.5459 213.807L-21.142 181.874L-70.8298 213.807L-120.77 181.7C-121.003 181.55 -121.07 181.241 -120.921 181.009C-120.771 180.777 -120.462 180.709 -120.23 180.859L-70.8298 212.618L-21.142 180.685ZM-21.142 212.619L28.5459 244.41L78.2337 212.619L127.904 244.41L177.592 212.619L227.279 244.41L276.967 212.619L326.655 244.41L376.343 212.619L426.013 244.41L475.701 212.619L525.389 244.41L575.094 212.619L624.782 244.41L674.47 212.619L724.158 244.41L773.846 212.619L823.533 244.41L873.239 212.619L922.927 244.41L972.615 212.619L1022.3 244.41L1071.99 212.619L1121.7 244.41L1171.38 212.619L1221.09 244.41L1270.79 212.619L1320.77 244.582C1321 244.731 1321.07 245.04 1320.92 245.273C1320.77 245.505 1320.46 245.573 1320.23 245.424L1270.79 213.806L1221.09 245.597L1171.38 213.806L1121.7 245.597L1071.99 213.806L1022.3 245.597L972.615 213.806L922.927 245.597L873.239 213.806L823.533 245.597L773.846 213.806L724.158 245.597L674.47 213.806L624.782 245.597L575.094 213.806L525.389 245.597L475.701 213.806L426.013 245.597L376.343 213.806L326.655 245.597L276.967 213.806L227.279 245.597L177.592 213.806L127.904 245.597L78.2336 213.806L28.5459 245.597L-21.142 213.806L-70.8298 245.597L-120.769 213.634C-121.002 213.485 -121.07 213.176 -120.921 212.943C-120.772 212.711 -120.463 212.643 -120.23 212.792L-70.8298 244.41L-21.142 212.619ZM-21.142 244.41L28.5459 276.2L78.2337 244.41L127.904 276.2L177.592 244.41L227.279 276.2L276.967 244.41L326.655 276.2L376.343 244.41L426.013 276.2L475.701 244.41L525.389 276.2L575.094 244.41L624.782 276.2L674.47 244.41L724.158 276.2L773.846 244.41L823.533 276.2L873.239 244.41L922.927 276.2L972.615 244.41L1022.3 276.2L1071.99 244.41L1121.7 276.2L1171.38 244.41L1221.09 276.2L1270.79 244.41L1320.77 276.372C1321 276.521 1321.07 276.83 1320.92 277.063C1320.77 277.296 1320.46 277.364 1320.23 277.215L1270.79 245.597L1221.09 277.387L1171.38 245.597L1121.7 277.387L1071.99 245.597L1022.3 277.387L972.615 245.597L922.927 277.387L873.239 245.597L823.533 277.387L773.846 245.597L724.158 277.387L674.47 245.597L624.782 277.387L575.094 245.597L525.389 277.387L475.701 245.597L426.013 277.387L376.343 245.597L326.655 277.387L276.967 245.597L227.279 277.387L177.592 245.597L127.904 277.387L78.2336 245.597L28.5459 277.387L-21.142 245.597L-70.8298 277.387L-120.769 245.424C-121.002 245.275 -121.07 244.966 -120.921 244.734C-120.772 244.501 -120.463 244.433 -120.23 244.582L-70.8298 276.2L-21.142 244.41ZM-21.142 276.2L28.5459 307.99L78.2337 276.2L127.904 307.99L177.592 276.2L227.279 307.99L276.967 276.2L326.655 307.99L376.343 276.2L426.013 307.99L475.701 276.2L525.389 307.99L575.094 276.2L624.782 307.99L674.47 276.2L724.158 307.99L773.846 276.2L823.533 307.99L873.239 276.2L922.927 307.99L972.615 276.2L1022.3 307.99L1071.99 276.2L1121.7 307.99L1171.38 276.2L1221.09 307.99L1270.79 276.2L1320.77 308.163C1321 308.312 1321.07 308.621 1320.92 308.853C1320.77 309.086 1320.46 309.154 1320.23 309.005L1270.79 277.387L1221.09 309.177L1171.38 277.387L1121.7 309.178L1071.99 277.387L1022.3 309.178L972.615 277.387L922.927 309.178L873.239 277.387L823.533 309.178L773.846 277.387L724.158 309.178L674.47 277.387L624.782 309.178L575.094 277.387L525.389 309.178L475.701 277.387L426.013 309.178L376.343 277.387L326.655 309.178L276.967 277.387L227.279 309.178L177.592 277.387L127.904 309.178L78.2336 277.387L28.5459 309.178L-21.142 277.387L-70.8298 309.178L-120.769 277.215C-121.002 277.066 -121.07 276.757 -120.921 276.524C-120.772 276.292 -120.463 276.224 -120.23 276.372L-70.8297 307.99L-21.142 276.2ZM-21.142 307.99L28.5459 339.781L78.2337 307.99L127.904 339.781L177.592 307.99L227.279 339.781L276.967 307.99L326.655 339.781L376.343 307.99L426.013 339.781L475.701 307.99L525.389 339.781L575.094 307.99L624.782 339.781L674.47 307.99L724.158 339.781L773.846 307.99L823.533 339.781L873.239 307.99L922.927 339.781L972.615 307.99L1022.3 339.781L1071.99 307.99L1121.7 339.781L1171.38 307.99L1221.09 339.781L1270.79 307.99L1320.77 339.953C1321 340.102 1321.07 340.411 1320.92 340.644C1320.77 340.876 1320.46 340.944 1320.23 340.796L1270.79 309.177L1221.09 340.968L1171.38 309.178L1121.7 340.968L1071.99 309.178L1022.3 340.968L972.615 309.178L922.927 340.968L873.239 309.178L823.533 340.968L773.846 309.178L724.158 340.968L674.47 309.178L624.782 340.968L575.094 309.178L525.389 340.968L475.701 309.178L426.013 340.968L376.343 309.178L326.655 340.968L276.967 309.178L227.279 340.968L177.592 309.178L127.904 340.968L78.2336 309.178L28.5459 340.968L-21.142 309.178L-70.8298 340.968L-120.769 309.005C-121.002 308.856 -121.07 308.547 -120.921 308.314C-120.772 308.082 -120.463 308.014 -120.23 308.163L-70.8297 339.781L-21.142 307.99ZM-21.142 339.78L28.5459 371.714L78.2337 339.78L127.904 371.714L177.592 339.78L227.279 371.714L276.967 339.78L326.655 371.714L376.343 339.78L426.013 371.714L475.701 339.78L525.389 371.714L575.094 339.78L624.782 371.714L674.47 339.78L724.158 371.714L773.846 339.78L823.533 371.714L873.239 339.78L922.927 371.714L972.615 339.78L1022.3 371.714L1071.99 339.78L1121.7 371.714L1171.38 339.78L1221.09 371.714L1270.79 339.78L1320.77 371.887C1321 372.037 1321.07 372.346 1320.92 372.578C1320.77 372.811 1320.46 372.878 1320.23 372.729L1270.79 340.969L1221.09 372.902L1171.38 340.969L1121.7 372.902L1071.99 340.969L1022.3 372.902L972.615 340.969L922.927 372.902L873.239 340.969L823.533 372.902L773.846 340.969L724.158 372.902L674.47 340.969L624.782 372.902L575.094 340.969L525.389 372.902L475.701 340.969L426.013 372.902L376.343 340.969L326.655 372.902L276.967 340.969L227.279 372.902L177.592 340.969L127.904 372.902L78.2336 340.969L28.5459 372.902L-21.142 340.969L-70.8298 372.902L-120.77 340.795C-121.003 340.646 -121.07 340.336 -120.921 340.104C-120.771 339.872 -120.462 339.805 -120.23 339.954L-70.8297 371.714L-21.142 339.78ZM78.2337 371.714L127.904 403.505L177.592 371.714L227.279 403.505L276.967 371.714L326.655 403.505L376.343 371.714L426.013 403.505L475.701 371.714L525.389 403.505L575.094 371.714L624.782 403.505L674.47 371.714L724.158 403.505L773.846 371.714L823.533 403.505L873.239 371.714L922.927 403.505L972.615 371.714L1022.3 403.505L1071.99 371.714L1121.7 403.505L1171.38 371.714L1221.09 403.505L1270.79 371.714L1320.77 403.677C1321 403.826 1321.07 404.135 1320.92 404.368C1320.77 404.6 1320.46 404.668 1320.23 404.52L1270.79 372.901L1221.09 404.692L1171.38 372.902L1121.7 404.692L1071.99 372.902L1022.3 404.692L972.615 372.902L922.927 404.692L873.239 372.902L823.533 404.692L773.846 372.902L724.158 404.692L674.47 372.902L624.782 404.692L575.094 372.902L525.389 404.692L475.701 372.902L426.013 404.692L376.343 372.902L326.655 404.692L276.967 372.902L227.279 404.692L177.592 372.902L127.904 404.692L78.2336 372.902L28.5459 404.692L-21.142 372.902L-70.8298 404.692L-120.769 372.729C-121.002 372.58 -121.07 372.271 -120.921 372.038C-120.772 371.806 -120.463 371.738 -120.23 371.887L-70.8297 403.505L-21.142 371.714L28.5459 403.505L78.2337 371.714ZM78.2337 403.505L127.904 435.295L177.592 403.505L227.279 435.295L276.967 403.505L326.655 435.295L376.343 403.505L426.013 435.295L475.701 403.505L525.389 435.295L575.094 403.505L624.782 435.295L674.47 403.505L724.158 435.295L773.846 403.505L823.533 435.295L873.239 403.505L922.927 435.295L972.615 403.505L1022.3 435.295L1071.99 403.505L1121.7 435.295L1171.38 403.505L1221.09 435.295L1270.79 403.505L1320.77 435.468C1321 435.616 1321.07 435.926 1320.92 436.158C1320.77 436.391 1320.46 436.459 1320.23 436.31L1270.79 404.692L1221.09 436.482L1171.38 404.692L1121.7 436.482L1071.99 404.692L1022.3 436.482L972.615 404.692L922.927 436.482L873.239 404.692L823.533 436.482L773.846 404.692L724.158 436.482L674.47 404.692L624.782 436.482L575.094 404.692L525.389 436.482L475.701 404.692L426.013 436.482L376.343 404.692L326.655 436.482L276.967 404.692L227.279 436.482L177.592 404.692L127.904 436.482L78.2336 404.692L28.5459 436.482L-21.142 404.692L-70.8298 436.482L-120.769 404.52C-121.002 404.371 -121.07 404.061 -120.921 403.829C-120.772 403.596 -120.463 403.528 -120.23 403.677L-70.8298 435.295L-21.142 403.505L28.5459 435.295L78.2337 403.505ZM78.2337 435.295L127.904 467.086L177.592 435.295L227.279 467.086L276.967 435.295L326.655 467.086L376.343 435.295L426.013 467.086L475.701 435.295L525.389 467.086L575.094 435.295L624.782 467.086L674.47 435.295L724.158 467.086L773.846 435.295L823.533 467.086L873.239 435.295L922.927 467.086L972.615 435.295L1022.3 467.086L1071.99 435.295L1121.7 467.086L1171.38 435.295L1221.09 467.086L1270.79 435.295L1320.77 467.258C1321 467.407 1321.07 467.716 1320.92 467.949C1320.77 468.181 1320.46 468.249 1320.23 468.1L1270.79 436.482L1221.09 468.273L1171.38 436.482L1121.7 468.273L1071.99 436.482L1022.3 468.273L972.615 436.482L922.927 468.273L873.239 436.482L823.533 468.273L773.846 436.482L724.158 468.273L674.47 436.482L624.782 468.273L575.094 436.482L525.389 468.273L475.701 436.482L426.013 468.273L376.343 436.482L326.655 468.273L276.967 436.482L227.279 468.273L177.592 436.482L127.904 468.273L78.2336 436.482L28.5459 468.273L-21.142 436.482L-70.8298 468.273L-120.769 436.31C-121.002 436.161 -121.07 435.852 -120.921 435.619C-120.772 435.387 -120.463 435.319 -120.23 435.468L-70.8297 467.086L-21.142 435.295L28.5459 467.086L78.2337 435.295ZM-21.142 467.085L28.5459 499.018L78.2337 467.085L127.904 499.018L177.592 467.085L227.279 499.018L276.967 467.085L326.655 499.018L376.343 467.085L426.013 499.018L475.701 467.085L525.389 499.018L575.094 467.085L624.782 499.018L674.47 467.085L724.158 499.018L773.846 467.085L823.533 499.018L873.239 467.085L922.927 499.018L972.615 467.085L1022.3 499.018L1071.99 467.085L1121.7 499.018L1171.38 467.085L1221.09 499.019L1270.79 467.085L1320.77 499.192C1321 499.341 1321.07 499.651 1320.92 499.883C1320.77 500.115 1320.46 500.183 1320.23 500.033L1270.79 468.273L1221.09 500.207L1171.38 468.274L1121.7 500.207L1071.99 468.274L1022.3 500.207L972.615 468.274L922.927 500.207L873.239 468.274L823.533 500.207L773.846 468.274L724.158 500.207L674.47 468.274L624.782 500.207L575.094 468.274L525.389 500.207L475.701 468.274L426.013 500.207L376.343 468.274L326.655 500.207L276.967 468.274L227.279 500.207L177.592 468.274L127.904 500.207L78.2337 468.274L28.5459 500.207L-21.142 468.274L-70.8298 500.207L-120.77 468.1C-121.003 467.95 -121.07 467.641 -120.921 467.409C-120.771 467.177 -120.462 467.109 -120.23 467.259L-70.8298 499.018L-21.142 467.085ZM-21.142 499.019L28.5459 530.81L78.2337 499.019L127.904 530.81L177.592 499.019L227.279 530.81L276.967 499.019L326.655 530.81L376.343 499.019L426.013 530.81L475.701 499.019L525.389 530.81L575.094 499.019L624.782 530.81L674.47 499.019L724.158 530.81L773.846 499.019L823.533 530.81L873.239 499.019L922.927 530.81L972.615 499.019L1022.3 530.81L1071.99 499.019L1121.7 530.81L1171.38 499.019L1221.09 530.81L1270.79 499.019L1320.77 530.982C1321 531.131 1321.07 531.44 1320.92 531.673C1320.77 531.905 1320.46 531.973 1320.23 531.824L1270.79 500.206L1221.09 531.997L1171.38 500.206L1121.7 531.997L1071.99 500.206L1022.3 531.997L972.615 500.206L922.927 531.997L873.239 500.206L823.533 531.997L773.846 500.206L724.158 531.997L674.47 500.206L624.782 531.997L575.094 500.206L525.389 531.997L475.701 500.206L426.013 531.997L376.343 500.206L326.655 531.997L276.967 500.206L227.279 531.997L177.592 500.206L127.904 531.997L78.2336 500.206L28.5459 531.997L-21.142 500.206L-70.8298 531.997L-120.769 500.034C-121.002 499.885 -121.07 499.576 -120.921 499.343C-120.772 499.111 -120.463 499.043 -120.23 499.192L-70.8297 530.81L-21.142 499.019ZM-21.142 530.81L28.5459 562.6L78.2337 530.81L127.904 562.6L177.592 530.81L227.279 562.6L276.967 530.81L326.655 562.6L376.343 530.81L426.013 562.6L475.701 530.81L525.389 562.6L575.094 530.81L624.782 562.6L674.47 530.81L724.158 562.6L773.846 530.81L823.533 562.6L873.239 530.81L922.927 562.6L972.615 530.81L1022.3 562.6L1071.99 530.81L1121.7 562.6L1171.38 530.81L1221.09 562.6L1270.79 530.81L1320.77 562.772C1321 562.921 1321.07 563.23 1320.92 563.463C1320.77 563.696 1320.46 563.764 1320.23 563.615L1270.79 531.997L1221.09 563.787L1171.38 531.997L1121.7 563.787L1071.99 531.997L1022.3 563.787L972.615 531.997L922.927 563.787L873.239 531.997L823.533 563.787L773.846 531.997L724.158 563.787L674.47 531.997L624.782 563.787L575.094 531.997L525.389 563.787L475.701 531.997L426.013 563.787L376.343 531.997L326.655 563.787L276.967 531.997L227.279 563.787L177.592 531.997L127.904 563.787L78.2336 531.997L28.5459 563.787L-21.142 531.997L-70.8298 563.787L-120.769 531.824C-121.002 531.675 -121.07 531.366 -120.921 531.134C-120.772 530.901 -120.463 530.833 -120.23 530.982L-70.8297 562.6L-21.142 530.81ZM-21.142 562.6L28.5459 594.391L78.2337 562.6L127.904 594.39L177.592 562.6L227.279 594.391L276.967 562.6L326.655 594.391L376.343 562.6L426.013 594.39L475.701 562.6L525.389 594.391L575.094 562.6L624.782 594.391L674.47 562.6L724.158 594.391L773.846 562.6L823.533 594.391L873.239 562.6L922.927 594.391L972.615 562.6L1022.3 594.391L1071.99 562.6L1121.7 594.391L1171.38 562.6L1221.09 594.39L1270.79 562.6L1320.77 594.563C1321 594.712 1321.07 595.021 1320.92 595.253C1320.77 595.486 1320.46 595.554 1320.23 595.405L1270.79 563.787L1221.09 595.578L1171.38 563.787L1121.7 595.578L1071.99 563.787L1022.3 595.578L972.615 563.787L922.927 595.578L873.239 563.787L823.533 595.578L773.846 563.787L724.158 595.578L674.47 563.787L624.782 595.578L575.094 563.787L525.389 595.578L475.701 563.787L426.013 595.578L376.343 563.787L326.655 595.578L276.967 563.787L227.279 595.578L177.592 563.787L127.904 595.578L78.2336 563.787L28.5459 595.578L-21.142 563.787L-70.8298 595.578L-120.769 563.615C-121.002 563.466 -121.07 563.157 -120.921 562.924C-120.772 562.692 -120.463 562.624 -120.23 562.772L-70.8297 594.39L-21.142 562.6ZM-21.142 594.39L28.5459 626.181L78.2337 594.39L127.904 626.181L177.592 594.39L227.279 626.181L276.967 594.39L326.655 626.181L376.343 594.39L426.013 626.181L475.701 594.39L525.389 626.181L575.094 594.39L624.782 626.181L674.47 594.39L724.158 626.181L773.846 594.39L823.533 626.181L873.239 594.39L922.927 626.181L972.615 594.39L1022.3 626.181L1071.99 594.39L1121.7 626.181L1171.38 594.39L1221.09 626.181L1270.79 594.391L1320.77 626.353C1321 626.502 1321.07 626.811 1320.92 627.044C1320.77 627.276 1320.46 627.344 1320.23 627.196L1270.79 595.578L1221.09 627.368L1171.38 595.578L1121.7 627.368L1071.99 595.578L1022.3 627.368L972.615 595.578L922.927 627.368L873.239 595.578L823.533 627.368L773.846 595.578L724.158 627.368L674.47 595.578L624.782 627.368L575.094 595.578L525.389 627.368L475.701 595.578L426.013 627.368L376.343 595.578L326.655 627.368L276.967 595.578L227.279 627.368L177.592 595.578L127.904 627.368L78.2336 595.578L28.5459 627.368L-21.142 595.578L-70.8298 627.368L-120.769 595.405C-121.002 595.256 -121.07 594.947 -120.921 594.714C-120.772 594.482 -120.463 594.414 -120.23 594.563L-70.8297 626.181L-21.142 594.39ZM-21.142 626.18L28.5459 658.114L78.2337 626.18L127.904 658.114L177.592 626.18L227.279 658.114L276.967 626.18L326.655 658.114L376.343 626.18L426.013 658.114L475.701 626.18L525.389 658.114L575.094 626.18L624.782 658.114L674.47 626.18L724.158 658.114L773.846 626.18L823.533 658.114L873.239 626.18L922.927 658.114L972.615 626.18L1022.3 658.114L1071.99 626.18L1121.7 658.114L1171.38 626.18L1221.09 658.114L1270.79 626.18L1320.77 658.287C1321 658.437 1321.07 658.746 1320.92 658.978C1320.77 659.211 1320.46 659.278 1320.23 659.129L1270.79 627.369L1221.09 659.302L1171.38 627.369L1121.7 659.302L1071.99 627.369L1022.3 659.302L972.615 627.369L922.927 659.302L873.239 627.369L823.533 659.302L773.846 627.369L724.158 659.302L674.47 627.369L624.782 659.302L575.094 627.369L525.389 659.302L475.701 627.369L426.013 659.302L376.343 627.369L326.655 659.302L276.967 627.369L227.279 659.302L177.592 627.369L127.904 659.302L78.2337 627.369L28.5459 659.302L-21.142 627.369L-70.8298 659.302L-120.77 627.195C-121.003 627.046 -121.07 626.736 -120.921 626.504C-120.771 626.272 -120.462 626.204 -120.23 626.354L-70.8297 658.114L-21.142 626.18ZM-21.142 658.114L28.5459 689.905L78.2337 658.114L127.904 689.905L177.592 658.114L227.279 689.905L276.967 658.114L326.655 689.905L376.343 658.114L426.013 689.905L475.701 658.114L525.389 689.905L575.094 658.114L624.782 689.905L674.47 658.114L724.158 689.905L773.846 658.114L823.533 689.905L873.239 658.114L922.927 689.905L972.615 658.114L1022.3 689.905L1071.99 658.114L1121.7 689.905L1171.38 658.114L1221.09 689.905L1270.79 658.115L1320.77 690.077C1321 690.226 1321.07 690.535 1320.92 690.768C1320.77 691 1320.46 691.068 1320.23 690.92L1270.79 659.302L1221.09 691.092L1171.38 659.302L1121.7 691.092L1071.99 659.302L1022.3 691.092L972.615 659.302L922.927 691.092L873.239 659.302L823.533 691.092L773.846 659.302L724.158 691.092L674.47 659.302L624.782 691.092L575.094 659.302L525.389 691.092L475.701 659.302L426.013 691.092L376.343 659.302L326.655 691.092L276.967 659.302L227.279 691.092L177.592 659.302L127.904 691.092L78.2336 659.302L28.5459 691.092L-21.142 659.302L-70.8298 691.092L-120.769 659.129C-121.002 658.98 -121.07 658.671 -120.921 658.438C-120.772 658.206 -120.463 658.138 -120.23 658.287L-70.8297 689.905L-21.142 658.114ZM-21.142 689.905L28.5459 721.695L78.2337 689.905L127.904 721.695L177.592 689.905L227.279 721.695L276.967 689.905L326.655 721.695L376.343 689.905L426.013 721.695L475.701 689.905L525.389 721.695L575.094 689.905L624.782 721.695L674.47 689.905L724.158 721.695L773.846 689.905L823.533 721.695L873.239 689.905L922.927 721.695L972.615 689.905L1022.3 721.695L1071.99 689.905L1121.7 721.695L1171.38 689.905L1221.09 721.695L1270.79 689.905L1320.77 721.868C1321 722.016 1321.07 722.326 1320.92 722.558C1320.77 722.791 1320.46 722.859 1320.23 722.71L1270.79 691.092L1221.09 722.882L1171.38 691.092L1121.7 722.882L1071.99 691.092L1022.3 722.882L972.615 691.092L922.927 722.882L873.239 691.092L823.533 722.882L773.846 691.092L724.158 722.882L674.47 691.092L624.782 722.882L575.094 691.092L525.389 722.882L475.701 691.092L426.013 722.882L376.343 691.092L326.655 722.882L276.967 691.092L227.279 722.882L177.592 691.092L127.904 722.882L78.2336 691.092L28.5459 722.882L-21.142 691.092L-70.8298 722.882L-120.769 690.92C-121.002 690.771 -121.07 690.461 -120.921 690.229C-120.772 689.996 -120.463 689.928 -120.23 690.077L-70.8298 721.695L-21.142 689.905ZM-21.142 721.695L28.5459 753.486L78.2337 721.695L127.904 753.486L177.592 721.695L227.279 753.486L276.967 721.695L326.655 753.486L376.343 721.695L426.013 753.486L475.701 721.695L525.389 753.486L575.094 721.695L624.782 753.486L674.47 721.695L724.158 753.486L773.846 721.695L823.533 753.486L873.239 721.695L922.927 753.486L972.615 721.695L1022.3 753.486L1071.99 721.695L1121.7 753.486L1171.38 721.695L1221.09 753.486L1270.79 721.695L1320.77 753.658C1321 753.807 1321.07 754.116 1320.92 754.349C1320.77 754.581 1320.46 754.649 1320.23 754.5L1270.79 722.882L1221.09 754.673L1171.38 722.882L1121.7 754.673L1071.99 722.882L1022.3 754.673L972.615 722.882L922.927 754.673L873.239 722.882L823.533 754.673L773.846 722.882L724.158 754.673L674.47 722.882L624.782 754.673L575.094 722.882L525.389 754.673L475.701 722.882L426.013 754.673L376.343 722.882L326.655 754.673L276.967 722.882L227.279 754.673L177.592 722.882L127.904 754.673L78.2336 722.882L28.5459 754.673L-21.142 722.882L-70.8298 754.673L-120.769 722.71C-121.002 722.561 -121.07 722.252 -120.921 722.019C-120.772 721.787 -120.463 721.719 -120.23 721.868L-70.8298 753.486L-21.142 721.695ZM78.2337 753.485L127.904 785.418L177.592 753.485L227.279 785.418L276.967 753.485L326.655 785.418L376.343 753.485L426.013 785.418L475.701 753.485L525.389 785.418L575.094 753.485L624.782 785.418L674.47 753.485L724.158 785.418L773.846 753.485L823.533 785.418L873.239 753.485L922.927 785.418L972.615 753.485L1022.3 785.418L1071.99 753.485L1121.7 785.418L1171.38 753.485L1221.09 785.419L1270.79 753.485L1320.77 785.592C1321 785.741 1321.07 786.051 1320.92 786.283C1320.77 786.515 1320.46 786.583 1320.23 786.433L1270.79 754.673L1221.09 786.607L1171.38 754.673L1121.7 786.607L1071.99 754.673L1022.3 786.607L972.615 754.673L922.927 786.607L873.239 754.673L823.533 786.607L773.846 754.673L724.158 786.607L674.47 754.673L624.782 786.607L575.094 754.673L525.389 786.607L475.701 754.673L426.013 786.607L376.343 754.674L326.655 786.607L276.967 754.673L227.279 786.607L177.592 754.673L127.904 786.607L78.2336 754.674L28.5459 786.607L-21.142 754.673L-70.8298 786.607L-120.77 754.5C-121.003 754.35 -121.07 754.041 -120.921 753.809C-120.771 753.577 -120.462 753.509 -120.23 753.659L-70.8297 785.418L-21.142 753.485L28.5459 785.418L78.2337 753.485ZM-21.142 785.419L28.5459 817.21L78.2337 785.419L127.904 817.21L177.592 785.419L227.279 817.21L276.967 785.419L326.655 817.21L376.343 785.419L426.013 817.21L475.701 785.419L525.389 817.21L575.094 785.419L624.782 817.21L674.47 785.419L724.158 817.21L773.846 785.419L823.533 817.21L873.239 785.419L922.927 817.21L972.615 785.419L1022.3 817.21L1071.99 785.419L1121.7 817.21L1171.38 785.419L1221.09 817.21L1270.79 785.419L1320.77 817.382C1321 817.531 1321.07 817.84 1320.92 818.073C1320.77 818.305 1320.46 818.373 1320.23 818.224L1270.79 786.606L1221.09 818.397L1171.38 786.606L1121.7 818.397L1071.99 786.606L1022.3 818.397L972.615 786.606L922.927 818.397L873.239 786.606L823.533 818.397L773.846 786.606L724.158 818.397L674.47 786.606L624.782 818.397L575.094 786.606L525.389 818.397L475.701 786.606L426.013 818.397L376.343 786.606L326.655 818.397L276.967 786.606L227.279 818.397L177.592 786.606L127.904 818.397L78.2336 786.606L28.5459 818.397L-21.142 786.606L-70.8298 818.397L-120.769 786.434C-121.002 786.285 -121.07 785.976 -120.921 785.743C-120.772 785.511 -120.463 785.443 -120.23 785.592L-70.8298 817.21L-21.142 785.419ZM-21.142 817.21L28.5459 849L78.2337 817.21L127.904 849L177.592 817.21L227.279 849L276.967 817.21L326.655 849L376.343 817.21L426.013 849L475.701 817.21L525.389 849L575.094 817.21L624.782 849L674.47 817.21L724.158 849L773.846 817.21L823.533 849L873.239 817.21L922.927 849L972.615 817.21L1022.3 849L1071.99 817.21L1121.7 849L1171.38 817.21L1221.09 849L1270.79 817.21L1320.77 849.172C1321 849.321 1321.07 849.63 1320.92 849.863C1320.77 850.096 1320.46 850.164 1320.23 850.015L1270.79 818.397L1221.09 850.187L1171.38 818.397L1121.7 850.187L1071.99 818.397L1022.3 850.187L972.615 818.397L922.927 850.187L873.239 818.397L823.533 850.187L773.846 818.397L724.158 850.187L674.47 818.397L624.782 850.187L575.094 818.397L525.389 850.187L475.701 818.397L426.013 850.187L376.343 818.397L326.655 850.187L276.967 818.397L227.279 850.187L177.592 818.397L127.904 850.187L78.2336 818.397L28.5459 850.187L-21.142 818.397L-70.8298 850.187L-120.769 818.224C-121.002 818.075 -121.07 817.766 -120.921 817.534C-120.772 817.301 -120.463 817.233 -120.23 817.382L-70.8298 849L-21.142 817.21Z" fill="white"/>
</svg>
